<?xml version="1.0" encoding="UTF-8" standalone="no"?>
<svg
    xmlns="http://www.w3.org/2000/svg"
    version="1.1"
    width="42px"
    height="42px"
    viewBox="0 0 42 42"
>
    <defs>
        <filter id="shadow" x="-21" y="-21" width="84" height="84">
            <feOffset result="offOut" in="SourceAlpha" dx="1" dy="1" />
            <feGaussianBlur result="blurOut" in="offOut" stdDeviation="2" />
            <feBlend in="SourceGraphic" in2="blurOut" mode="normal" />
        </filter>
    </defs>
    <g filter="url(#shadow)">
        <path
            d="M 8,12 L 34,12 C 36,12 36,16 34,16 L 8,16 C 6,16 6,12 8,12 Z"
            style="fill:#fff000;stroke:none;"
        />
        <path
            d="M 8,19 L 34,19 C 36,19 36,23 34,23 L 8,23 C 6,23 6,19 8,19 Z"
            style="fill:#fff000;stroke:none;"
        />
        <path
            d="M 8,26 L 34,26 C 36,26 36,30 34,30 L 8,30 C 6,30 6,26 8,26 Z"
            style="fill:#fff000;stroke:none;"
        />
    </g>
</svg>
