<?xml version="1.0" encoding="UTF-8" standalone="no"?>
<svg
   xmlns="http://www.w3.org/2000/svg"
   height="16"
   width="16"
   version="1.1"
   id="Layer_1"
   viewBox="0 0 16 16">
  <g
     transform="matrix(0.03125,0,0,0.03125,-0.124999,6.0365159e-7)"
     id="g856">
    <path
       style="fill:#ffffff;fill-opacity:1;stroke:#676767;stroke-width:15.7569;stroke-miterlimit:4;stroke-dasharray:none;stroke-opacity:1"
       d="m 127.89869,7.8784306 c -17.61114,0 -32.020259,13.9568384 -32.020259,31.0151964 V 473.10637 c 0,17.05836 14.409119,31.0152 32.020259,31.0152 h 320.20262 c 17.61114,0 32.02026,-13.95684 32.02026,-31.0152 V 131.93922 L 352.04052,7.8784306 Z"
       id="path2" />
    <path
       style="fill:#b0b7bd;stroke-width:0.984804"
       d="m 384.06078,131.93922 h 96.06079 L 352.04052,7.8784306 V 100.92402 c 0,17.05836 14.40912,31.0152 32.02026,31.0152 z"
       id="path4" />
    <polygon
       transform="matrix(1.0006332,0,0,0.96922488,-0.18235413,7.8784306)"
       style="fill:#cad1d8"
       points="480,224 384,128 480,128 "
       id="polygon6" />
  </g>
  <path
     id="path8"
     d="m 12.874999,12.999999 c 0,0.275 -0.225,0.5 -0.5,0.5 H 1.375 c -0.275,0 -0.5,-0.225 -0.5,-0.5 V 7.9999994 c 0,-0.275 0.225,-0.5 0.5,-0.5 h 10.999999 c 0.275,0 0.5,0.225 0.5,0.5 z"
     style="fill:#f0db4f;fill-opacity:1;stroke-width:0.03125" />
  <path
     id="path18"
     d="M 12.374999,13.499999 H 2.875 v 0.5 h 9.499999 c 0.275,0 0.5,-0.225 0.5,-0.5 v -0.5 c 0,0.275 -0.225,0.5 -0.5,0.5 z"
     style="fill:#cad1d8;stroke-width:0.03125" />
  <path
     d="M 10.052471,11.340828 C 9.977261,10.871983 9.671535,10.47835 8.766079,10.111088 8.451562,9.966527 8.100906,9.8630005 7.996392,9.6246614 7.959272,9.4859618 7.954392,9.4078205 7.977832,9.3238196 8.045232,9.0513037 8.370489,8.9663256 8.628354,9.0444668 8.794403,9.1001418 8.951661,9.2281071 9.046407,9.4322399 9.489858,9.1450824 9.488881,9.1470262 9.798513,8.9497303 9.685209,8.7739137 9.624651,8.6928331 9.550417,8.6176322 9.283761,8.3197209 8.920407,8.1663694 8.339235,8.1780903 8.238628,8.1907883 8.137055,8.2044533 8.036439,8.2171613 7.746352,8.2904183 7.469919,8.4427926 7.307777,8.6469354 6.82135,9.1988047 6.960051,10.164809 7.551967,10.56236 c 0.583125,0.437589 1.439743,0.537218 1.54914,0.94648 0.106467,0.501078 -0.368228,0.663211 -0.840013,0.605591 -0.347726,-0.07228 -0.541115,-0.249073 -0.750151,-0.570427 -0.384834,0.222701 -0.384834,0.222701 -0.780422,0.450286 0.09377,0.205119 0.192413,0.297912 0.349681,0.475682 0.744291,0.755035 2.606961,0.717918 2.941022,-0.424891 0.01367,-0.03908 0.103537,-0.300851 0.03125,-0.704253 z M 6.204039,8.2386397 H 5.242907 c 0,0.8302455 -0.0039,1.6546308 -0.0039,2.4848763 0,0.528427 0.02735,1.012899 -0.05861,1.161367 C 5.039744,12.176925 4.675412,12.140794 4.509364,12.084132 4.340384,12.001112 4.25443,11.88292 4.1548,11.715903 c -0.02735,-0.04786 -0.04786,-0.08498 -0.05471,-0.08791 -0.260786,0.159212 -0.520613,0.319391 -0.781408,0.478613 0.129919,0.266654 0.321354,0.498147 0.566521,0.648558 0.366284,0.219771 0.858571,0.287167 1.373333,0.16898 0.335029,-0.09768 0.62414,-0.299856 0.775537,-0.607535 0.218794,-0.403402 0.17191,-0.891782 0.169957,-1.43193 0.0049,-0.881037 0,-1.7620739 0,-2.6460413 z"
     fill="#323330"
     id="path4-0"
     style="stroke-width:0.00976759" />
</svg>
