<?xml version="1.0" encoding="UTF-8" standalone="no"?>
<svg
   xmlns="http://www.w3.org/2000/svg"
   height="16"
   width="16"
   version="1.1"
   id="Layer_1"
   viewBox="0 0 16 16">
  <g
     id="g856"
     transform="matrix(0.03125,0,0,0.03125,-0.124999,6.0365159e-7)"
     style="display:inline">
    <path
       id="path2"
       d="m 127.89869,7.8784306 c -17.61114,0 -32.020259,13.9568384 -32.020259,31.0151964 V 473.10637 c 0,17.05836 14.409119,31.0152 32.020259,31.0152 h 320.20262 c 17.61114,0 32.02026,-13.95684 32.02026,-31.0152 V 131.93922 L 352.04052,7.8784306 Z"
       style="fill:#ffffff;fill-opacity:1;stroke:#676767;stroke-width:15.7569;stroke-miterlimit:4;stroke-dasharray:none;stroke-opacity:1" />
    <path
       id="path4"
       d="m 384.06078,131.93922 h 96.06079 L 352.04052,7.8784306 V 100.92402 c 0,17.05836 14.40912,31.0152 32.02026,31.0152 z"
       style="fill:#b0b7bd;stroke-width:0.984804" />
    <polygon
       id="polygon6"
       points="384,128 480,128 480,224 "
       style="fill:#cad1d8"
       transform="matrix(1.0006332,0,0,0.96922488,-0.18235413,7.8784306)" />
  </g>
  <path
     style="display:inline;fill:#4f9af0;fill-opacity:1;stroke-width:0.03125"
     d="m 12.874999,12.999999 c 0,0.275 -0.225,0.5 -0.5,0.5 H 1.375 c -0.275,0 -0.5,-0.225 -0.5,-0.5 V 7.9999994 c 0,-0.275 0.225,-0.5 0.5,-0.5 h 10.999999 c 0.275,0 0.5,0.225 0.5,0.5 z"
     id="path8" />
  <path
     style="display:inline;fill:#cad1d8;stroke-width:0.03125"
     d="M 12.374999,13.499999 H 2.875 v 0.5 h 9.499999 c 0.275,0 0.5,-0.225 0.5,-0.5 v -0.5 c 0,0.275 -0.225,0.5 -0.5,0.5 z"
     id="path18" />
  <g
     transform="matrix(0.03125,0,0,0.03125,-0.125,0)"
     aria-label="CSS"
     id="text853"
     style="font-style:normal;font-variant:normal;font-weight:bold;font-stretch:normal;font-size:192px;line-height:1.25;font-family:'Segoe UI';-inkscape-font-specification:'Segoe UI Bold';display:inline;fill:#ffffff;fill-opacity:1">
    <path
       d="m 166.81255,399.90594 q -14.71875,7.125 -38.4375,7.125 -30.937497,0 -48.656247,-18.1875 -17.71875,-18.1875 -17.71875,-48.46875 0,-32.25 19.875,-52.3125 19.968747,-20.0625 51.749997,-20.0625 19.6875,0 33.1875,4.96875 v 29.15625 q -13.5,-8.0625 -30.75,-8.0625 -18.9375,0 -30.5625,11.90625 -11.624997,11.90625 -11.624997,32.25 0,19.5 10.968747,31.125 10.96875,11.53125 29.53125,11.53125 17.71875,0 32.4375,-8.625 z"
       id="path855" />
    <path
       d="m 184.25005,399.53094 v -30 q 8.15625,6.84375 17.71875,10.3125 9.5625,3.375 19.3125,3.375 5.71875,0 9.9375,-1.03125 4.3125,-1.03125 7.125,-2.8125 2.90625,-1.875 4.3125,-4.3125 1.40625,-2.53125 1.40625,-5.4375 0,-3.9375 -2.25,-7.03125 -2.25,-3.09375 -6.1875,-5.71875 -3.84375,-2.625 -9.1875,-5.0625 -5.34375,-2.4375 -11.53125,-4.96875 -15.75,-6.5625 -23.53125,-16.03125 -7.6875,-9.46875 -7.6875,-22.875 0,-10.5 4.21875,-18 4.21875,-7.59375 11.4375,-12.46875 7.3125,-4.875 16.875,-7.125 9.5625,-2.34375 20.25,-2.34375 10.5,0 18.5625,1.3125 8.15625,1.21875 15,3.84375 v 28.03125 q -3.375,-2.34375 -7.40625,-4.125 -3.9375,-1.78125 -8.15625,-2.90625 -4.21875,-1.21875 -8.4375,-1.78125 -4.125,-0.5625 -7.875,-0.5625 -5.15625,0 -9.375,1.03125 -4.21875,0.9375 -7.125,2.71875 -2.90625,1.78125 -4.5,4.3125 -1.59375,2.4375 -1.59375,5.53125 0,3.375 1.78125,6.09375 1.78125,2.625 5.0625,5.0625 3.28125,2.34375 7.96875,4.6875 4.6875,2.25 10.59375,4.6875 8.0625,3.375 14.4375,7.21875 6.46875,3.75 11.0625,8.53125 4.59375,4.78125 7.03125,10.96875 2.4375,6.09375 2.4375,14.25 0,11.25 -4.3125,18.9375 -4.21875,7.59375 -11.53125,12.375 -7.3125,4.6875 -17.0625,6.75 -9.65625,2.0625 -20.4375,2.0625 -11.0625,0 -21.09375,-1.875 -9.9375,-1.875 -17.25,-5.625 z"
       id="path857" />
    <path
       d="m 291.87505,399.53094 v -30 q 8.15625,6.84375 17.71875,10.3125 9.5625,3.375 19.3125,3.375 5.71875,0 9.9375,-1.03125 4.3125,-1.03125 7.125,-2.8125 2.90625,-1.875 4.3125,-4.3125 1.40625,-2.53125 1.40625,-5.4375 0,-3.9375 -2.25,-7.03125 -2.25,-3.09375 -6.1875,-5.71875 -3.84375,-2.625 -9.1875,-5.0625 -5.34375,-2.4375 -11.53125,-4.96875 -15.75,-6.5625 -23.53125,-16.03125 -7.6875,-9.46875 -7.6875,-22.875 0,-10.5 4.21875,-18 4.21875,-7.59375 11.4375,-12.46875 7.3125,-4.875 16.875,-7.125 9.5625,-2.34375 20.25,-2.34375 10.5,0 18.5625,1.3125 8.15625,1.21875 15,3.84375 v 28.03125 q -3.375,-2.34375 -7.40625,-4.125 -3.9375,-1.78125 -8.15625,-2.90625 -4.21875,-1.21875 -8.4375,-1.78125 -4.125,-0.5625 -7.875,-0.5625 -5.15625,0 -9.375,1.03125 -4.21875,0.9375 -7.125,2.71875 -2.90625,1.78125 -4.5,4.3125 -1.59375,2.4375 -1.59375,5.53125 0,3.375 1.78125,6.09375 1.78125,2.625 5.0625,5.0625 3.28125,2.34375 7.96875,4.6875 4.6875,2.25 10.59375,4.6875 8.0625,3.375 14.4375,7.21875 6.46875,3.75 11.0625,8.53125 4.59375,4.78125 7.03125,10.96875 2.4375,6.09375 2.4375,14.25 0,11.25 -4.3125,18.9375 -4.21875,7.59375 -11.53125,12.375 -7.3125,4.6875 -17.0625,6.75 -9.65625,2.0625 -20.4375,2.0625 -11.0625,0 -21.09375,-1.875 -9.9375,-1.875 -17.25,-5.625 z"
       id="path859" />
  </g>
</svg>
