<?xml version="1.0" encoding="UTF-8" standalone="no"?>
<svg
   xmlns="http://www.w3.org/2000/svg"
   height="16"
   width="16"
   version="1.1"
   id="Layer_1"
   viewBox="0 0 16 16">
  <g
     transform="matrix(0.03125,0,0,0.03125,-0.124999,6.0365159e-7)"
     id="g856">
    <path
       style="fill:#ffffff;fill-opacity:1;stroke:#676767;stroke-width:15.7569;stroke-miterlimit:4;stroke-dasharray:none;stroke-opacity:1"
       d="m 127.89869,7.8784306 c -17.61114,0 -32.020259,13.9568384 -32.020259,31.0151964 V 473.10637 c 0,17.05836 14.409119,31.0152 32.020259,31.0152 h 320.20262 c 17.61114,0 32.02026,-13.95684 32.02026,-31.0152 V 131.93922 L 352.04052,7.8784306 Z"
       id="path2" />
    <path
       style="fill:#b0b7bd;stroke-width:0.984804"
       d="m 384.06078,131.93922 h 96.06079 L 352.04052,7.8784306 V 100.92402 c 0,17.05836 14.40912,31.0152 32.02026,31.0152 z"
       id="path4" />
    <polygon
       transform="matrix(1.0006332,0,0,0.96922488,-0.18235413,7.8784306)"
       style="fill:#cad1d8"
       points="480,128 480,224 384,128 "
       id="polygon6" />
  </g>
  <path
     style="fill:#4159f7;fill-opacity:1;stroke-width:0.03125"
     d="m 12.874999,12.999999 c 0,0.275 -0.225,0.5 -0.5,0.5 H 1.375 c -0.275,0 -0.5,-0.225 -0.5,-0.5 V 7.9999994 c 0,-0.275 0.225,-0.5 0.5,-0.5 h 10.999999 c 0.275,0 0.5,0.225 0.5,0.5 z"
     id="path8" />
  <g
     id="g16"
     transform="matrix(0.03962713,0,0,0.03962713,-1.969391,-2.9569007)">
    <path
       style="fill:#ffffff"
       d="m 92.576,384 c -4.224,0 -8.832,-2.32 -8.832,-7.936 v -72.656 c 0,-4.608 4.608,-7.936 8.832,-7.936 h 29.296 c 58.464,0 57.168,88.528 1.136,88.528 z m 8.064,-72.928 v 57.312 h 21.232 c 34.544,0 36.064,-57.312 0,-57.312 z"
       id="path10" />
    <path
       style="fill:#ffffff"
       d="m 228,385.28 c -23.664,1.024 -48.24,-14.72 -48.24,-46.064 0,-31.472 24.56,-46.944 48.24,-46.944 22.384,1.136 45.792,16.624 45.792,46.944 0,30.336 -23.408,46.064 -45.792,46.064 z m -1.408,-76.368 c -14.336,0 -29.936,10.112 -29.936,30.32 0,20.096 15.616,30.336 29.936,30.336 14.72,0 30.448,-10.24 30.448,-30.336 0,-20.224 -15.728,-30.32 -30.448,-30.32 z"
       id="path12" />
    <path
       style="fill:#ffffff"
       d="m 288.848,339.088 c 0,-24.688 15.488,-45.92 44.912,-45.92 11.136,0 19.968,3.328 29.296,11.392 3.456,3.184 3.84,8.816 0.384,12.4 -3.456,3.056 -8.704,2.688 -11.776,-0.384 -5.232,-5.504 -10.608,-7.024 -17.904,-7.024 -19.696,0 -29.152,13.952 -29.152,29.552 0,15.872 9.328,30.448 29.152,30.448 7.296,0 14.08,-2.96 19.968,-8.192 3.952,-3.072 9.456,-1.552 11.76,1.536 2.048,2.816 3.056,7.552 -1.408,12.016 -8.96,8.336 -19.696,10 -30.336,10 -30.944,0 -44.896,-21.136 -44.896,-45.824 z"
       id="path14" />
  </g>
  <path
     style="fill:#cad1d8;stroke-width:0.03125"
     d="M 12.374999,13.499999 H 2.875 v 0.5 h 9.499999 c 0.275,0 0.5,-0.225 0.5,-0.5 v -0.5 c 0,0.275 -0.225,0.5 -0.5,0.5 z"
     id="path18" />
</svg>
