<?xml version="1.0" encoding="UTF-8" standalone="no"?>
<svg
   xmlns="http://www.w3.org/2000/svg"
   id="svg10"
   version="1.1"
   width="16"
   viewBox="0 0 16 16"
   height="16">
  <path
     id="path2"
     fill="none"
     d="M 0,0 H 24 V 24 H 0 Z" />
  <circle
     style="stroke-width:0.636364"
     id="circle4"
     r="0.95454544"
     cy="10.863636"
     cx="3.8636363" />
  <circle
     style="stroke-width:0.636364"
     id="circle6"
     r="0.95454544"
     cy="10.863636"
     cx="8.318182" />
  <path
     style="stroke-width:0.636364"
     id="path8"
     d="M 10.545455,1 C 9.0245455,1 7.6881818,1.7636364 6.8863636,2.9218182 6.6254545,2.9154545 6.3645455,2.9090909 6.0909091,2.9090909 3.2781818,2.9090909 1,3.2272727 1,5.4545455 v 6.3636365 c 0,0.56 0.2481818,1.062727 0.6363636,1.412727 v 1.132727 c 0,0.35 0.2863637,0.636364 0.6363637,0.636364 h 0.6363636 c 0.35,0 0.6363636,-0.286364 0.6363636,-0.636364 v -0.636363 h 5.0909091 v 0.636363 c 0,0.35 0.2863637,0.636364 0.6363637,0.636364 h 0.6363636 c 0.3500001,0 0.6363641,-0.286364 0.6363641,-0.636364 v -1.132727 c 0.388181,-0.35 0.636363,-0.852727 0.636363,-1.412727 V 9.8581818 C 13.339091,9.5463636 15,7.7009091 15,5.4545455 15,2.9918182 13.008182,1 10.545455,1 Z M 6.0909091,4.1818182 h 0.1845454 c -0.057273,0.2036363 -0.1018181,0.42 -0.1336363,0.63 H 2.4890909 c 0.35,-0.3372727 1.2536364,-0.63 3.6018182,-0.63 z M 2.2727273,6.0845455 H 6.1418182 C 6.2436364,6.7909091 6.5045455,7.44 6.8927273,8 h -4.62 z m 7.6363636,5.7336365 c 0,0.235454 -0.1336364,0.394545 -0.2163636,0.464545 L 9.5081818,12.454545 H 2.6736364 L 2.4890909,12.282727 c -0.082727,-0.07 -0.2163636,-0.229091 -0.2163636,-0.464545 V 9.2727273 h 5.9881818 c 0.4963636,0.2990909 1.05,0.5027272 1.6481818,0.5854545 z M 10.545455,8.6363636 c -1.7563641,0 -3.1818186,-1.4254545 -3.1818186,-3.1818181 0,-1.7563637 1.4254545,-3.1818182 3.1818186,-3.1818182 1.756363,0 3.181818,1.4254545 3.181818,3.1818182 0,1.7563636 -1.425455,3.1818181 -3.181818,3.1818181 z M 10.863636,2.9090909 H 9.9090909 V 6.0909091 L 12.212727,7.4654545 12.69,6.6827273 10.863636,5.6136364 Z" />
</svg>
