<?xml version="1.0" encoding="UTF-8" standalone="no"?>
<svg
   xmlns="http://www.w3.org/2000/svg"
   id="svg6"
   version="1.1"
   width="16"
   viewBox="0 0 16 16"
   height="16">
  <path
     id="path2"
     fill="none"
     d="M 0,0 H 24 V 24 H 0 Z" />
  <path
     style="stroke-width:0.875"
     id="path4"
     d="M 8,2.6625 C 9.015,2.6625 9.8375,3.485 9.8375,4.5 9.8375,5.515 9.015,6.3375 8,6.3375 6.985,6.3375 6.1625,5.515 6.1625,4.5 6.1625,3.485 6.985,2.6625 8,2.6625 m 0,7.875 c 2.59875,0 5.3375,1.2775 5.3375,1.8375 v 0.9625 H 2.6625 V 12.375 c 0,-0.56 2.73875,-1.8375 5.3375,-1.8375 M 8,1 C 6.06625,1 4.5,2.56625 4.5,4.5 4.5,6.43375 6.06625,8 8,8 9.93375,8 11.5,6.43375 11.5,4.5 11.5,2.56625 9.93375,1 8,1 Z m 0,7.875 c -2.33625,0 -7,1.1725 -7,3.5 V 15 h 14 v -2.625 c 0,-2.3275 -4.66375,-3.5 -7,-3.5 z" />
</svg>
