<?xml version="1.0" encoding="UTF-8" standalone="no"?>
<svg
   xmlns="http://www.w3.org/2000/svg"
   id="svg4"
   version="1.1"
   width="16"
   viewBox="0 0 16 16"
   height="16"
>
  <path
     d="M 0,0 H 24 V 24 H 0 Z"
     fill="none"
     opacity="0.87"
     id="path2" />
  <path
     d="M 8,1 C 4.129,1 1,4.129 1,8 c 0,3.871 3.129,7 7,7 3.871,0 7,-3.129 7,-7 C 15,4.129 11.871,1 8,1 Z M 8,13.6 C 4.913,13.6 2.4,11.087 2.4,8 2.4,4.913 4.913,2.4 8,2.4 c 3.087,0 5.6,2.513 5.6,5.6 0,3.087 -2.513,5.6 -5.6,5.6 z M 10.513,4.5 8,7.013 5.487,4.5 4.5,5.487 7.013,8 4.5,10.513 5.487,11.5 8,8.987 10.513,11.5 11.5,10.513 8.987,8 11.5,5.487 Z"
     id="path4"
     style="fill:#ff0000;fill-opacity:1;stroke-width:0.7" />
</svg>
