<?xml version="1.0" encoding="UTF-8" standalone="no"?>
<svg
   xmlns="http://www.w3.org/2000/svg"
   id="svg6"
   version="1.1"
   width="16"
   viewBox="0 0 16 16"
   height="16">
  <path
     id="path2"
     fill="none"
     d="M 0,0 H 24 V 24 H 0 Z" />
  <path
     style="stroke-width:0.583333"
     id="path4"
     d="M 10.333333,5.1666667 H 9.1666667 v 1.75 h -1.75 v 1.1666666 h 1.75 V 9.833333 H 10.333333 V 8.0833333 h 1.75 V 6.9166667 h -1.75 z M 2.1666667,7.5 c 0,-1.6275 0.9566666,-3.0333333 2.3391666,-3.6866667 v -1.26 C 2.47,3.2766667 1,5.2191667 1,7.5 c 0,2.280833 1.47,4.223333 3.5058333,4.946667 v -1.26 C 3.1233333,10.533333 2.1666667,9.1275 2.1666667,7.5 Z M 9.75,2.25 C 6.8566667,2.25 4.5,4.6066667 4.5,7.5 c 0,2.893333 2.3566667,5.25 5.25,5.25 C 12.643333,12.75 15,10.393333 15,7.5 15,4.6066667 12.643333,2.25 9.75,2.25 Z m 0,9.333333 c -2.2516667,0 -4.0833333,-1.831666 -4.0833333,-4.083333 0,-2.2516667 1.8316666,-4.0833333 4.0833333,-4.0833333 2.251667,0 4.083333,1.8316666 4.083333,4.0833333 0,2.251667 -1.831666,4.083333 -4.083333,4.083333 z" />
</svg>
