<?xml version="1.0" encoding="UTF-8" standalone="no"?>
<svg
   xmlns="http://www.w3.org/2000/svg"
   id="svg5"
   version="1.1"
   viewBox="0 0 16 16"
   width="16"
   height="16"
>
  <g
     transform="scale(0.0625,0.06407744)"
     id="github">
    <path
       id="path2"
       d="M 128,0 C 57.32,0 0,57.312 0,128 c 0,56.551 36.676,104.543 87.551,121.465 6.387,1.164 8.73,-2.773 8.73,-6.172 0,-3.023 -0.102,-11.086 -0.168,-21.773 C 60.508,229.254 52.992,204.356 52.992,204.356 47.18,189.59 38.789,185.629 38.789,185.629 c -11.613,-7.922 0.879,-7.766 0.879,-7.766 12.84,0.891 19.594,13.188 19.594,13.188 11.418,19.555 29.969,13.906 37.25,10.641 1.164,-8.273 4.48,-13.922 8.125,-17.109 -28.426,-3.242 -58.301,-14.219 -58.301,-63.27 0,-13.977 4.988,-25.398 13.172,-34.352 -1.309,-3.234 -5.707,-16.25 1.254,-33.859 0,0 10.75,-3.465 35.199,13.098 10.215,-2.836 21.164,-4.25 32.051,-4.301 10.887,0.051 21.816,1.465 32.035,4.301 24.453,-16.562 35.18,-13.098 35.18,-13.098 6.992,17.609 2.586,30.637 1.273,33.859 8.203,8.938 13.156,20.375 13.156,34.352 0,49.176 -29.93,60.004 -58.43,63.168 4.57,3.961 8.688,11.773 8.688,23.711 0,17.125 -0.164,30.914 -0.164,35.109 0,3.438 2.305,7.406 8.805,6.164 C 219.375,232.488 256,184.543 256,128 256,57.312 198.672,0 128,0 Z"
       fill="#191717" />
  </g>
</svg>
