<?xml version="1.0" encoding="UTF-8" standalone="no"?>
<svg
   xmlns="http://www.w3.org/2000/svg"
   height="16"
   width="16"
   version="1.1"
   id="Layer_1"
   viewBox="0 0 16 16">
  <g
     transform="matrix(0.03125,0,0,0.03125,-0.124999,6.0365159e-7)"
     id="g856">
    <path
       style="fill:#ffffff;fill-opacity:1;stroke:#676767;stroke-width:15.7569;stroke-miterlimit:4;stroke-dasharray:none;stroke-opacity:1"
       d="m 127.89869,7.8784306 c -17.61114,0 -32.020259,13.9568384 -32.020259,31.0151964 V 473.10637 c 0,17.05836 14.409119,31.0152 32.020259,31.0152 h 320.20262 c 17.61114,0 32.02026,-13.95684 32.02026,-31.0152 V 131.93922 L 352.04052,7.8784306 Z"
       id="path2" />
    <path
       style="fill:#b0b7bd;stroke-width:0.984804"
       d="m 384.06078,131.93922 h 96.06079 L 352.04052,7.8784306 V 100.92402 c 0,17.05836 14.40912,31.0152 32.02026,31.0152 z"
       id="path4" />
    <polygon
       transform="matrix(1.0006332,0,0,0.96922488,-0.18235413,7.8784306)"
       style="fill:#cad1d8"
       points="480,224 384,128 480,128 "
       id="polygon6" />
  </g>
  <path
     style="fill:#d9d214;fill-opacity:1;stroke-width:0.03125"
     d="m 12.874999,12.999999 c 0,0.275 -0.225,0.5 -0.5,0.5 H 1.375 c -0.275,0 -0.5,-0.225 -0.5,-0.5 V 7.9999994 c 0,-0.275 0.225,-0.5 0.5,-0.5 h 10.999999 c 0.275,0 0.5,0.225 0.5,0.5 z"
     id="path8" />
  <g
     id="g16"
     transform="matrix(0.04100398,0,0,0.04100396,-2.39132,-3.4432869)"
     style="fill:#000000;fill-opacity:1">
    <path
       style="fill:#000000;fill-opacity:1"
       d="m 132.64,384 c -8.064,0 -11.264,-7.792 -6.656,-13.296 l 45.552,-60.512 h -37.76 c -11.12,0 -10.224,-15.712 0,-15.712 h 51.568 c 9.712,0 12.528,9.184 5.632,16.624 l -43.632,56.656 h 41.584 c 10.24,0 11.52,16.256 -1.008,16.256 h -55.28 z"
       id="path10" />
    <path
       style="fill:#000000;fill-opacity:1"
       d="m 212.048,303.152 c 0,-10.496 16.896,-10.88 16.896,0 v 73.04 c 0,10.608 -16.896,10.88 -16.896,0 z"
       id="path12" />
    <path
       style="fill:#000000;fill-opacity:1"
       d="m 251.616,303.152 c 0,-4.224 3.328,-8.832 8.704,-8.832 h 29.552 c 16.64,0 31.616,11.136 31.616,32.48 0,20.224 -14.976,31.488 -31.616,31.488 h -21.36 v 16.896 c 0,5.632 -3.584,8.816 -8.192,8.816 -4.224,0 -8.704,-3.184 -8.704,-8.816 z m 16.88,7.28 v 31.872 h 21.36 c 8.576,0 15.36,-7.568 15.36,-15.504 0,-8.944 -6.784,-16.368 -15.36,-16.368 z"
       id="path14" />
  </g>
  <path
     style="fill:#cad1d8;stroke-width:0.03125"
     d="M 12.374999,13.499999 H 2.875 v 0.5 h 9.499999 c 0.275,0 0.5,-0.225 0.5,-0.5 v -0.5 c 0,0.275 -0.225,0.5 -0.5,0.5 z"
     id="path18" />
</svg>
