<?xml version="1.0" encoding="UTF-8" standalone="no"?>
<svg
   xmlns="http://www.w3.org/2000/svg"
   viewBox="0 0 16 16"
   id="Layer_1"
   version="1.1"
   width="16"
   height="16">
  <g
     style="display:inline"
     id="g856"
     transform="matrix(0.03125,0,0,0.03125,-0.99999941,-1.8713188e-5)">
    <path
       style="fill:#ffffff;fill-opacity:1;stroke:#676767;stroke-width:15.7569;stroke-miterlimit:4;stroke-dasharray:none;stroke-opacity:1"
       d="m 127.89869,7.8784306 c -17.61114,0 -32.020259,13.9568384 -32.020259,31.0151964 V 473.10637 c 0,17.05836 14.409119,31.0152 32.020259,31.0152 h 320.20262 c 17.61114,0 32.02026,-13.95684 32.02026,-31.0152 V 131.93922 L 352.04052,7.8784306 Z"
       id="path2" />
    <path
       style="fill:#b0b7bd;stroke-width:0.984804"
       d="m 384.06078,131.93922 h 96.06079 L 352.04052,7.8784306 V 100.92402 c 0,17.05836 14.40912,31.0152 32.02026,31.0152 z"
       id="path4" />
    <polygon
       transform="matrix(1.0006332,0,0,0.96922488,-0.18235413,7.8784306)"
       style="fill:#cad1d8"
       points="480,224 384,128 480,128 "
       id="polygon6" />
  </g>
  <g
     style="fill:#ed3e35;fill-opacity:1"
     transform="matrix(0.31116903,0,0,0.31116903,-1.6631014,-6.046907)"
     id="g26">
    <path
       style="fill:#ed3e35;fill-opacity:1"
       class="st1"
       d="m 12,68.1 c -1.5,0 -2.6,-0.7 -3.2,-2 -0.8,-2.1 0.4,-4.9 3.4,-7.8 2.3,-2.3 5.6,-4.1 9.7,-5.6 2.2,-4 4.2,-8.4 5.6,-12.1 -3.1,-4.8 -3.7,-10.8 -2.6,-14.2 0.7,-2.2 1.9,-3 2.8,-3.3 1.3,-0.4 2.5,-0.1 3.4,0.9 1.3,1.4 1.8,4.4 1.5,8.9 -0.1,1.8 -0.7,4.2 -1.8,7.2 0,0.1 0.1,0.1 0.1,0.2 0.7,0.9 1.5,1.8 2.2,2.8 1.7,2.1 3.6,4.5 5.5,6.6 0.6,0 1.1,0 1.6,0 6.8,0 11.4,1.4 12.9,4 0.6,1.1 0.6,2.3 0,3.4 -0.8,1.4 -2.6,2.3 -4.8,2.3 v 0 c -0.5,0 -1.1,-0.1 -1.6,-0.2 -2.7,-0.5 -5.7,-2.6 -9.4,-6.5 -0.9,0.1 -1.9,0.1 -2.9,0.2 -2.2,0.2 -6.3,0.8 -10.6,2.1 -1.8,3.3 -5.7,9.9 -8.7,11.8 -0.9,0.9 -2,1.3 -3.1,1.3 z m 7.5,-11.2 c -2.1,1 -3.8,2.2 -5.2,3.5 -2.6,2.6 -2.8,4.2 -2.7,4.6 0,0.1 0.2,0.1 0.4,0.1 0.4,0 1,-0.2 1.6,-0.6 1.4,-0.9 3.5,-3.7 5.9,-7.6 z m 22.1,-4.1 c 2.3,2.1 4.2,3.3 5.8,3.6 0.4,0.1 0.7,0.1 1.1,0.1 0,0 0,0 0,0 1.2,0 2,-0.4 2.2,-0.8 0,-0.1 0.1,-0.2 0,-0.4 -0.6,-0.9 -3,-2.3 -9.1,-2.5 z m -12,-9.4 c -1,2.6 -2.3,5.4 -3.7,8.1 3.4,-0.9 6.6,-1.2 8.4,-1.4 0.2,0 0.5,0 0.7,-0.1 C 33.6,48.3 32.2,46.6 30.9,45 30.4,44.5 30,43.9 29.6,43.4 Z M 28.8,26 c 0,0 -0.1,0 -0.1,0 -0.3,0.1 -0.7,0.6 -0.9,1.4 -0.7,2.2 -0.4,5.9 1.1,9.3 0.5,-1.6 0.8,-3 0.8,-4 0.4,-5 -0.5,-6.4 -0.7,-6.6 C 28.8,26 28.8,26 28.8,26 Z"
       id="path24" />
  </g>
</svg>
