<?xml version="1.0" encoding="UTF-8" standalone="no"?>
<svg
   xmlns="http://www.w3.org/2000/svg"
   height="16"
   width="16"
   version="1.1"
   id="Layer_1"
   viewBox="0 0 16 16">
  <g
     id="g856"
     transform="matrix(0.03125,0,0,0.03125,-0.124999,6.0365159e-7)">
    <path
       id="path2"
       d="m 127.89869,7.8784306 c -17.61114,0 -32.020259,13.9568384 -32.020259,31.0151964 V 473.10637 c 0,17.05836 14.409119,31.0152 32.020259,31.0152 h 320.20262 c 17.61114,0 32.02026,-13.95684 32.02026,-31.0152 V 131.93922 L 352.04052,7.8784306 Z"
       style="fill:#ffffff;fill-opacity:1;stroke:#676767;stroke-width:15.7569;stroke-miterlimit:4;stroke-dasharray:none;stroke-opacity:1" />
    <path
       id="path4"
       d="m 384.06078,131.93922 h 96.06079 L 352.04052,7.8784306 V 100.92402 c 0,17.05836 14.40912,31.0152 32.02026,31.0152 z"
       style="fill:#b0b7bd;stroke-width:0.984804" />
    <polygon
       id="polygon6"
       points="480,224 384,128 480,128 "
       style="fill:#cad1d8"
       transform="matrix(1.0006332,0,0,0.96922488,-0.18235413,7.8784306)" />
  </g>
  <path
     id="path8"
     d="m 12.874999,12.999999 c 0,0.275 -0.225,0.5 -0.5,0.5 H 1.375 c -0.275,0 -0.5,-0.225 -0.5,-0.5 V 7.9999994 c 0,-0.275 0.225,-0.5 0.5,-0.5 h 10.999999 c 0.275,0 0.5,0.225 0.5,0.5 z"
     style="fill:#576d7e;stroke-width:0.03125" />
  <g
     transform="matrix(0.04121528,0,0,0.04121528,-2.362187,-3.5350379)"
     id="g16">
    <path
       id="path10"
       d="M 132.784,311.472 H 110.4 c -11.136,0 -11.136,-16.368 0,-16.368 h 60.512 c 11.392,0 11.392,16.368 0,16.368 h -21.248 v 64.592 c 0,11.12 -16.896,11.392 -16.896,0 v -64.592 z"
       style="fill:#ffffff" />
    <path
       id="path12"
       d="m 224.416,326.176 22.272,-27.888 c 6.656,-8.688 19.568,2.432 12.288,10.752 -7.68,9.088 -15.728,18.944 -23.424,29.024 l 26.112,32.496 c 7.024,9.6 -7.04,18.816 -13.952,9.344 l -23.536,-30.192 -23.152,30.832 c -6.528,9.328 -20.992,-1.152 -13.68,-9.856 l 25.696,-32.624 c -8.048,-10.096 -15.856,-19.936 -23.664,-29.024 -8.064,-9.6 6.912,-19.44 12.784,-10.48 z"
       style="fill:#ffffff" />
    <path
       id="path14"
       d="M 298.288,311.472 H 275.92 c -11.136,0 -11.136,-16.368 0,-16.368 h 60.496 c 11.392,0 11.392,16.368 0,16.368 h -21.232 v 64.592 c 0,11.12 -16.896,11.392 -16.896,0 z"
       style="fill:#ffffff" />
  </g>
  <path
     id="path18"
     d="M 12.374999,13.499999 H 2.875 v 0.5 h 9.499999 c 0.275,0 0.5,-0.225 0.5,-0.5 v -0.5 c 0,0.275 -0.225,0.5 -0.5,0.5 z"
     style="fill:#cad1d8;stroke-width:0.03125" />
</svg>
