<?xml version="1.0" encoding="UTF-8" standalone="no"?>
<svg
   xmlns="http://www.w3.org/2000/svg"
   height="16"
   viewBox="0 0 16 16"
   width="16"
   version="1.1"
   id="svg30">
  <g
     id="g4"
     transform="scale(0.66666667)">
    <rect
       fill="none"
       height="24"
       width="24"
       id="rect2"
       x="0"
       y="0" />
  </g>
  <g
     id="g16"
     transform="matrix(0.7,0,0,0.7,-0.4,-0.4)">
    <g
       id="g6" />
    <g
       id="g14">
      <path
         d="M 8,8 H 6 v 7 c 0,1.1 0.9,2 2,2 h 9 V 15 H 8 Z"
         id="path8" />
      <path
         d="m 20,3 h -8 c -1.1,0 -2,0.9 -2,2 v 6 c 0,1.1 0.9,2 2,2 h 8 c 1.1,0 2,-0.9 2,-2 V 5 C 22,3.9 21.1,3 20,3 Z m 0,8 H 12 V 7 h 8 z"
         id="path10" />
      <path
         d="M 4,12 H 2 v 7 c 0,1.1 0.9,2 2,2 h 9 V 19 H 4 Z"
         id="path12" />
    </g>
  </g>
  <g
     display="none"
     id="g28">
    <g
       display="inline"
       id="g18" />
    <g
       display="inline"
       id="g26">
      <path
         d="M 8,8 H 6 v 7 c 0,1.1 0.9,2 2,2 h 9 V 15 H 8 Z"
         id="path20" />
      <path
         d="m 20,3 h -8 c -1.1,0 -2,0.9 -2,2 v 6 c 0,1.1 0.9,2 2,2 h 8 c 1.1,0 2,-0.9 2,-2 V 5 C 22,3.9 21.1,3 20,3 Z m 0,8 H 12 V 7 h 8 z"
         id="path22" />
      <path
         d="M 4,12 H 2 v 7 c 0,1.1 0.9,2 2,2 h 9 V 19 H 4 Z"
         id="path24" />
    </g>
  </g>
</svg>
