<?xml version="1.0" encoding="UTF-8" standalone="no"?>
<svg
   xmlns="http://www.w3.org/2000/svg"
   height="16"
   width="16"
   version="1.1"
   id="Layer_1"
   viewBox="0 0 16 16">
  <g
     transform="matrix(0.03125,0,0,0.03125,-0.99999941,6.0365159e-7)"
     id="g856">
    <path
       style="fill:#ffffff;fill-opacity:1;stroke:#676767;stroke-width:15.7569;stroke-miterlimit:4;stroke-dasharray:none;stroke-opacity:1"
       d="m 127.89869,7.8784306 c -17.61114,0 -32.020259,13.9568384 -32.020259,31.0151964 V 473.10637 c 0,17.05836 14.409119,31.0152 32.020259,31.0152 h 320.20262 c 17.61114,0 32.02026,-13.95684 32.02026,-31.0152 V 131.93922 L 352.04052,7.8784306 Z"
       id="path2" />
    <path
       style="fill:#b0b7bd;stroke-width:0.984804"
       d="m 384.06078,131.93922 h 96.06079 L 352.04052,7.8784306 V 100.92402 c 0,17.05836 14.40912,31.0152 32.02026,31.0152 z"
       id="path4" />
    <polygon
       transform="matrix(1.0006332,0,0,0.96922488,-0.18235413,7.8784306)"
       style="fill:#cad1d8"
       points="384,128 480,128 480,224 "
       id="polygon6" />
  </g>
  <path
     style="display:inline;stroke-width:0.0385681"
     id="path2-7"
     d="M 9.8585036,9.7052943 9.0323756,10.652333 7.2994736,8.1940428 C 7.2281996,8.0869394 7.1055146,8.0255775 6.9770826,8.0328284 c -0.126117,0.00297 -0.244328,0.062094 -0.32239,0.1612144 l -2.65977,3.5866762 c -0.09171,0.137457 -0.10695,0.312209 -0.0403,0.463434 0.06476,0.146405 0.20337,0.246528 0.362694,0.261955 H 11.69215 c 0.159325,-0.01543 0.297977,-0.11555 0.362694,-0.261955 0.06711,-0.144283 0.05172,-0.313481 -0.0403,-0.443301 L 10.483152,9.7455593 C 10.415581,9.6419271 10.304158,9.5750499 10.180895,9.5642124 10.056898,9.5561524 9.9367196,9.6087584 9.8585036,9.7052943 Z m -1.430644,1.9948177 h -3.30459 l 1.853775,-2.498594 1.753034,2.498594 z m 2.4582904,0 H 9.7174606 l -0.20148,-0.32239 0.6246484,-0.705256 z" />
  <path
     style="display:inline;stroke-width:0.0385681"
     id="path4-2"
     d="m 9.1532476,8.5970406 c 0.678837,0 1.2291264,-0.5502893 1.2291264,-1.2291259 0,-0.6788368 -0.5502894,-1.2291258 -1.2291264,-1.2291258 -0.678836,0 -1.229126,0.550289 -1.229126,1.2291258 v 0 c 0,0.6788366 0.55029,1.2291259 1.229126,1.2291259 z m -0.42313,-1.2291259 c 0,-0.233684 0.189446,-0.4231302 0.42313,-0.4231302 0.233684,0 0.42313,0.1894462 0.42313,0.4231302 0,0.2336841 -0.189446,0.4231303 -0.42313,0.4231303 -0.233684,0 -0.42313,-0.1894462 -0.42313,-0.4231303 0,0 0,0 0,0 z" />
</svg>
