<?xml version="1.0" encoding="UTF-8" standalone="no"?>
<svg
   xmlns="http://www.w3.org/2000/svg"
   viewBox="0 0 16 16"
   height="16"
   width="16"
   id="svg2"
   version="1.1"
>
  <path
     id="switzerland"
     style="fill:none;stroke:#009600;stroke-width:0.883195;stroke-linecap:butt;stroke-linejoin:round;stroke-miterlimit:4;stroke-dasharray:none;stroke-dashoffset:0;stroke-opacity:1"
     d="M 14.404376,11.231572 C 14.030887,10.865652 14.816698,10.212999 14.242609,9.8717089 13.807796,10.033258 13.577616,10.749499 13.024518,10.297419 12.700107,10.048385 12.59448,9.6132641 12.073167,9.737024 11.235884,9.7845307 11.729694,8.7805882 11.971813,8.4080223 12.185059,7.8188463 11.186812,8.0186602 10.9975,7.5505153 10.622391,7.0430431 9.8793633,7.6728764 9.5610655,7.0834639 9.4760189,7.6523087 9.3103482,6.6053233 9.062014,6.9332427 8.8880845,6.5900953 8.0787173,7.393994 8.7550648,7.417599 9.1666822,7.1076973 9.0230546,7.8256531 8.7234917,7.4949731 8.4930624,7.970263 7.8152421,7.3299407 7.5167126,7.7674748 7.1625012,7.7105836 6.5226579,7.7949123 6.3592613,7.757716 6.0281664,7.4474341 5.7690502,8.4076992 5.2718531,8.2984941 4.9162313,8.3442212 5.0534997,7.7968247 4.6336153,8.0301448 4.279225,8.0827411 4.0096463,8.7297073 4.560508,8.6347273 4.1957925,9.0919569 3.8104792,9.604346 3.3248794,9.9219653 2.8218082,10.050962 2.8111295,10.523926 2.7594125,10.882058 2.3538507,11.211533 1.837436,11.452714 1.8040524,11.993042 c -0.055183,0.395972 0.3922188,0.813571 -0.2684237,1.029252 -0.4641872,0.57427 0.8230579,0.299933 0.7767046,-0.110538 -0.3891419,-0.628242 0.6771776,-0.819875 1.1566267,-0.766112 0.5083269,0.07234 0.525657,0.830124 0.4046352,1.175214 0.02633,0.20201 0.3519104,0.112257 0.1936038,0.345748 0.4823329,0.04743 0.3446048,0.919101 0.9524848,0.773987 0.5094955,-0.137371 1.1871726,-0.588245 1.7001278,-0.198843 0.5132856,-0.161234 0.8166304,-0.666812 1.0683636,-1.084312 -0.4202126,-0.481996 0.5911872,-0.527727 0.5405645,-0.973407 0.6469206,-0.200359 0.026664,0.842535 0.5825858,0.984206 0.2866383,0.338266 0.9745477,0.253001 0.8367923,0.731296 0.2352517,0.172034 0.3482522,0.474645 0.4049652,0.658882 0.690007,0.0283 -0.06661,-0.665893 0.249126,-0.927271 0.278519,-0.398704 0.842793,-0.77046 0.626231,-1.317634 -0.122797,-0.312794 0.186243,-0.542267 0.414063,-0.346098 0.321696,-0.08027 -0.03314,0.600082 0.412937,0.660361 0.455169,0.302375 1.019188,-0.714359 1.300676,0.0019 0.04412,0.362426 0.655304,0.377075 0.380512,-0.06688 0.156505,-0.432199 -0.651846,-0.788269 -0.03319,-1.15101 0.381855,-0.233554 0.779422,0.642489 1.054981,0.03813 -0.01434,-0.09237 -0.08442,-0.160387 -0.154036,-0.218367 z M 9.2540936,7.2527518 c -0.3536535,-0.054914 0.243686,-0.1808828 0,0 z M 10.21084,14.075248 c -0.131812,-0.05297 0.09809,-0.137851 0,0 z" />
  <path
     d="m 9.0139514,9.8754482 c 0,-3.6462295 -3.7840469,-3.6462295 -3.7840469,-5.8339677 0,-3.64622997 7.5680925,-3.64622997 7.5680925,0 0,2.1877382 -3.7840456,2.1877382 -3.7840456,5.8339677 V 5.499972 c 1.8920216,0 1.8920216,-2.1877374 0,-2.1877374 -1.8920241,0 -1.8920241,2.1877374 0,2.1877374 z"
     style="fill:#009600;fill-opacity:1;stroke:#009600;stroke-width:0.622942px;stroke-linecap:round;stroke-linejoin:round;stroke-opacity:1"
     id="path2" />
</svg>
