<?xml version="1.0" encoding="UTF-8" standalone="no"?>
<svg
   xmlns="http://www.w3.org/2000/svg"
   height="16"
   width="16"
   version="1.1"
   id="Layer_1"
   viewBox="0 0 16 16">
  <g
     style="display:inline"
     id="g856"
     transform="matrix(0.03125,0,0,0.03125,-0.38926907,6.0365159e-7)">
    <path
       id="path2"
       d="m 127.89869,7.8784306 c -17.61114,0 -32.020259,13.9568384 -32.020259,31.0151964 V 473.10637 c 0,17.05836 14.409119,31.0152 32.020259,31.0152 h 320.20262 c 17.61114,0 32.02026,-13.95684 32.02026,-31.0152 V 131.93922 L 352.04052,7.8784306 Z"
       style="fill:#ffffff;fill-opacity:1;stroke:#676767;stroke-width:15.7569;stroke-miterlimit:4;stroke-dasharray:none;stroke-opacity:1" />
    <path
       id="path4"
       d="m 384.06078,131.93922 h 96.06079 L 352.04052,7.8784306 V 100.92402 c 0,17.05836 14.40912,31.0152 32.02026,31.0152 z"
       style="fill:#b0b7bd;stroke-width:0.984804" />
    <polygon
       id="polygon6"
       points="480,128 480,224 384,128 "
       style="fill:#cad1d8"
       transform="matrix(1.0006332,0,0,0.96922488,-0.18235413,7.8784306)" />
  </g>
  <g
     transform="matrix(0.03125,0,0,0.03125,-0.61784107,-0.58775505)"
     id="g939">
    <ellipse
       style="display:inline;fill:none;stroke:#c2005f;stroke-width:24;stroke-miterlimit:4;stroke-dasharray:none;stroke-opacity:1"
       id="path872"
       cx="407.39084"
       cy="296.81085"
       rx="59.39085"
       ry="59.390839" />
    <ellipse
       cy="296"
       cx="408"
       id="path872-7"
       style="display:inline;fill:none;stroke:#c2005f;stroke-width:24;stroke-miterlimit:4;stroke-dasharray:none;stroke-opacity:1"
       rx="99.998253"
       ry="99.998276" />
  </g>
  <path
     id="path893"
     style="fill:none;stroke:#c2005f;stroke-width:0.75;stroke-miterlimit:4;stroke-dasharray:none;stroke-opacity:1"
     d="M 6.5331799,14.351529 0.98427393,14.355229 3.7555549,9.5479045 Z" />
  <path
     id="path933"
     d="m 6.6073139,11.255457 1.393233,-0.733206 0.0089,0.01745"
     style="fill:none;stroke:#c2005f;stroke-width:0.75;stroke-linecap:square;stroke-linejoin:miter;stroke-miterlimit:4;stroke-dasharray:none;stroke-opacity:1" />
</svg>
