<?xml version="1.0" encoding="UTF-8" standalone="no"?>
<svg
   xmlns="http://www.w3.org/2000/svg"
   id="svg30"
   version="1.1"
   width="16"
   viewBox="0 0 16 16"
   height="16">
  <g
     transform="matrix(0.7,0,0,0.7,-0.4,-0.4)"
     id="g901">
    <path
       d="M 8,8 H 6 v 7 c 0,1.1 0.9,2 2,2 h 9 V 15 H 8 Z"
       id="path8"
       style="fill:#009600;fill-opacity:1" />
    <path
       d="m 20,3 h -8 c -1.1,0 -2,0.9 -2,2 v 6 c 0,1.1 0.9,2 2,2 h 8 c 1.1,0 2,-0.9 2,-2 V 5 C 22,3.9 21.1,3 20,3 Z m 0,8 H 12 V 7 h 8 z"
       id="path10"
       style="fill:#009600;fill-opacity:1" />
    <path
       d="M 4,12 H 2 v 7 c 0,1.1 0.9,2 2,2 h 9 V 19 H 4 Z"
       id="path12"
       style="fill:#009600;fill-opacity:1;stroke-width:1;stroke-miterlimit:4;stroke-dasharray:none" />
  </g>
</svg>
