<?xml version="1.0" encoding="UTF-8" standalone="no"?>
<svg
   xmlns="http://www.w3.org/2000/svg"
   id="svg6"
   version="1.1"
   width="16"
   viewBox="0 0 16 16"
   height="16">
  <path
     style="stroke-width:0.666667"
     id="path2"
     fill="none"
     d="M 0,0 H 16 V 16 H 0 Z" />
  <path
     style="fill:#009600;fill-opacity:1;stroke-width:0.666667"
     id="path4"
     d="M 8,1.3 C 4.32,1.3 1.3333333,4.2866667 1.3333333,7.9666667 1.3333333,11.646667 4.32,14.633333 8,14.633333 h 3.333333 V 13.3 H 8 c -2.8933333,0 -5.3333333,-2.44 -5.3333333,-5.3333333 0,-2.8933334 2.44,-5.3333334 5.3333333,-5.3333334 2.893333,0 5.333333,2.44 5.333333,5.3333334 V 8.92 c 0,0.5266667 -0.473333,1.0466667 -1,1.0466667 -0.526666,0 -1,-0.52 -1,-1.0466667 V 7.9666667 C 11.333333,6.1266667 9.84,4.6333333 8,4.6333333 c -1.84,0 -3.3333333,1.4933334 -3.3333333,3.3333334 C 4.6666667,9.8066667 6.16,11.3 8,11.3 c 0.92,0 1.76,-0.373333 2.36,-0.98 0.433333,0.593333 1.18,0.98 1.973333,0.98 1.313334,0 2.333334,-1.066667 2.333334,-2.38 V 7.9666667 C 14.666667,4.2866667 11.68,1.3 8,1.3 Z m 0,8.6666667 c -1.1066667,0 -2,-0.8933334 -2,-2 0,-1.1066667 0.8933333,-2 2,-2 1.1066667,0 2,0.8933333 2,2 0,1.1066666 -0.8933333,2 -2,2 z" />
</svg>
