<?xml version="1.0" encoding="UTF-8" standalone="no"?>
<svg
   xmlns="http://www.w3.org/2000/svg"
   id="svg6"
   version="1.1"
   width="16"
   viewBox="0 0 16 16"
   height="16">
  <path
     id="path2"
     fill="none"
     d="M 0,0 H 24 V 24 H 0 Z" />
  <path
     style="stroke-width:0.800458"
     id="path4"
     d="M 11.005718,9.805031 H 10.373356 L 10.149228,9.588908 C 10.933676,8.676387 11.405946,7.4917095 11.405946,6.2029731 11.405946,3.329331 9.076615,1 6.2029731,1 3.329331,1 1,3.329331 1,6.2029731 1,9.076615 3.329331,11.405946 6.2029731,11.405946 c 1.2887364,0 2.4734139,-0.47227 3.3859349,-1.256718 l 0.216123,0.224128 v 0.632362 L 13.807318,15 15,13.807318 Z m -4.8027449,0 c -1.9931389,0 -3.6020583,-1.608919 -3.6020583,-3.6020579 0,-1.9931389 1.6089194,-3.6020583 3.6020583,-3.6020583 1.9931389,0 3.6020579,1.6089194 3.6020579,3.6020583 0,1.9931389 -1.608919,3.6020579 -3.6020579,3.6020579 z" />
</svg>
