<?xml version="1.0" encoding="UTF-8" standalone="no"?>
<svg
   xmlns="http://www.w3.org/2000/svg"
   height="16"
   width="16"
   viewBox="0 0 16 16"
   version="1.1"
>
<g
   transform="matrix(0.02734364,0,0,0.02734272,1,0.91676367)"
   id="g8">
	<path
   id="path2"
   d="M 504.813,254.448 475.271,121.49 C 470.521,100.198 451.979,85.334 430.188,85.334 404.73,85.334 384,106.053 384,131.511 v 7.156 c 0,5.896 4.771,10.667 10.667,10.667 5.896,0 10.667,-4.771 10.667,-10.667 v -7.156 c 0,-13.698 11.146,-24.844 24.854,-24.844 11.729,0 21.708,8.01 24.25,19.458 l 29.542,132.948 c 3.667,16.521 5.833,33.375 6.479,50.26 h -0.87 c -5.441,-53.75 -50.428,-96 -105.589,-96 -48.228,0 -88.613,32.385 -101.758,76.398 -6.527,-6.881 -15.129,-12.398 -26.242,-12.398 -11.113,0 -19.715,5.517 -26.242,12.398 -13.145,-44.013 -53.53,-76.398 -101.758,-76.398 -55.16,0 -100.147,42.25 -105.589,96 h -0.87 c 0.646,-16.885 2.813,-33.74 6.479,-50.26 L 57.562,126.135 c 2.542,-11.458 12.521,-19.469 24.25,-19.469 13.708,0 24.854,11.146 24.854,24.844 v 7.156 c 0,5.896 4.771,10.667 10.667,10.667 5.896,0 10.667,-4.771 10.667,-10.667 V 131.51 C 128,106.052 107.271,85.333 81.812,85.333 60.02,85.333 41.479,100.198 36.729,121.5 L 7.188,254.448 C 2.417,275.969 0,298.021 0,320 c 0,5.896 4.771,10.667 10.667,10.667 h 11.745 c 5.441,53.75 50.428,96 105.589,96 57.904,0 104.951,-46.451 106.398,-104.012 2.143,-5.964 10.667,-23.988 21.602,-23.988 10.654,0 19.07,17.02 21.599,23.956 1.43,57.576 48.487,104.044 106.401,104.044 55.16,0 100.147,-42.25 105.589,-96 h 11.745 c 5.896,0 10.667,-4.771 10.667,-10.667 -0.002,-21.979 -2.419,-44.031 -7.189,-65.552 z M 128,405.333 c -47.063,0 -85.333,-38.281 -85.333,-85.333 0,-47.052 38.271,-85.333 85.333,-85.333 47.062,0 85.333,38.281 85.333,85.333 0,47.052 -38.27,85.333 -85.333,85.333 z m 256,0 c -47.063,0 -85.333,-38.281 -85.333,-85.333 0,-47.052 38.271,-85.333 85.333,-85.333 47.062,0 85.333,38.281 85.333,85.333 0,47.052 -38.27,85.333 -85.333,85.333 z" />
	<path
   id="path4"
   d="m 128,256 c -35.292,0 -64,28.708 -64,64 0,5.896 4.771,10.667 10.667,10.667 5.896,0 10.667,-4.771 10.667,-10.667 0,-23.531 19.146,-42.667 42.667,-42.667 5.896,0 10.667,-4.771 10.667,-10.667 C 138.667,260.771 133.896,256 128,256 Z" />
	<path
   id="path6"
   d="m 384,256 c -35.292,0 -64,28.708 -64,64 0,5.896 4.771,10.667 10.667,10.667 5.896,0 10.667,-4.771 10.667,-10.667 0,-23.531 19.146,-42.667 42.667,-42.667 5.896,0 10.667,-4.771 10.667,-10.667 C 394.667,260.771 389.896,256 384,256 Z" />
</g>
</svg>
