<?xml version="1.0" encoding="UTF-8" standalone="no"?>
<svg
   xmlns="http://www.w3.org/2000/svg"
   height="16"
   viewBox="0 0 16 16"
   width="16"
   version="1.1"
   id="svg6">
  <path
     d="M 0,0 H 24 V 24 H 0 Z"
     fill="none"
     id="path2" />
  <path
     style="stroke-width:0.66069"
     d="M 5.2913907,11.275895 1,6.9981168 5.2980132,2.7269303 9.5960265,6.9981168 Z M 2.8741722,6.9981168 5.2980132,9.4105461 7.7152318,6.9981168 5.2913907,4.5856874 Z M 13.251656,11.124294 c -1.158941,1.160075 -2.688742,1.740113 -4.2119209,1.740113 V 15 l -2.807947,-2.794727 2.807947,-2.7947269 v 2.1355929 c 1.1854309,0 2.3708609,-0.448211 3.2781459,-1.351224 1.807947,-1.7994348 1.807947,-4.7259884 0,-6.5254235 -0.907285,-0.9030132 -2.092715,-1.3512241 -3.2781459,-1.3512241 -0.6423841,0 -1.2847682,0.1384181 -1.8807947,0.4020716 L 6.1721854,1.7382298 C 7.0662252,1.2504708 8.0529801,1 9.0397351,1 c 1.5231789,0 3.0529799,0.5800377 4.2119209,1.740113 2.331125,2.3135593 2.331125,6.0706215 0,8.384181 z"
     id="path4" />
</svg>
