<?xml version="1.0" encoding="UTF-8" standalone="no"?>
<svg
   xmlns="http://www.w3.org/2000/svg"
   id="svg6"
   version="1.1"
   width="16"
   viewBox="0 0 16 16"
   height="16">
  <path
     id="path2"
     fill="none"
     d="M 0,0 H 24 V 24 H 0 Z" />
  <path
     style="stroke-width:0.777778"
     id="path4"
     d="M 11.888889,1 H 2.5555556 C 1.6922222,1 1,1.7 1,2.5555556 V 13.444444 C 1,14.3 1.6922222,15 2.5555556,15 H 13.444444 C 14.3,15 15,14.3 15,13.444444 V 4.1111111 Z m 1.555555,12.444444 H 2.5555556 V 2.5555556 h 8.6877774 l 2.201111,2.2011111 z M 8,8 c -1.2911111,0 -2.3333333,1.042222 -2.3333333,2.333333 0,1.291111 1.0422222,2.333334 2.3333333,2.333334 1.291111,0 2.333333,-1.042223 2.333333,-2.333334 C 10.333333,9.042222 9.291111,8 8,8 Z M 3.3333333,3.3333333 H 10.333333 V 6.4444444 H 3.3333333 Z" />
</svg>
