<?xml version="1.0" encoding="UTF-8" standalone="no"?>
<svg
   xmlns="http://www.w3.org/2000/svg"
   height="12"
   width="16"
   id="svg6"
   version="1.1"
   viewBox="0 0 16 12"
>
<path
   style="stroke-width:0.0984049"
   id="path2"
   d="M 15.414786,2.1731144 C 15.237659,1.5138061 14.716117,0.99226401 14.046968,0.81513642 12.836597,0.50024297 7.9951094,0.50024297 7.9951094,0.50024297 c 0,0 -4.7529228,-0.0196808 -5.9632946,0.29521261 C 1.3626663,0.97258314 0.7230389,1.5138061 0.54591134,2.1731144 0.22117746,3.3736458 0.25069873,5.863272 0.25069873,5.863272 c 0,0 -0.0295213,2.4896264 0.29521261,3.6901577 0.17712756,0.6593083 0.82659536,1.2005313 1.48590346,1.3776583 1.2103718,0.324734 5.9632946,0.295213 5.9632946,0.295213 0,0 4.7529236,0.01969 5.9632956,-0.295213 0.669147,-0.177127 1.289095,-0.71835 1.466222,-1.3776583 C 15.74936,8.3627389 15.74936,5.863272 15.74936,5.863272 c 0,0 -0.0098,-2.4896262 -0.334574,-3.6901576 z"
   fill="#ff0000" />
<polygon
   transform="matrix(0.0984042,0,0,0.0984042,0.22117746,0.45104086)"
   id="polygon4"
   points="103.2,55 63.9,30.8 63.9,79.2 "
   fill="#ffffff" />
</svg>
