<?xml version="1.0" encoding="UTF-8" standalone="no"?>
<svg
   xmlns="http://www.w3.org/2000/svg"
   viewBox="0 0 16 16"
   version="1.1"
   id="svg6"
   width="16"
   height="16">
  <path
     fill="#ff0000"
     d="M 15.414786,4.1731144 C 15.237659,3.5138061 14.716117,2.992264 14.046968,2.8151364 12.836597,2.500243 7.9951094,2.500243 7.9951094,2.500243 c 0,0 -4.7529228,-0.019681 -5.9632946,0.2952126 C 1.3626663,2.9725831 0.7230389,3.5138061 0.54591134,4.1731144 0.22117746,5.3736458 0.25069873,7.863272 0.25069873,7.863272 c 0,0 -0.0295213,2.489626 0.29521261,3.690158 0.17712756,0.659308 0.82659536,1.200531 1.48590346,1.377658 1.2103718,0.324734 5.9632946,0.295213 5.9632946,0.295213 0,0 4.7529236,0.01969 5.9632956,-0.295213 0.669147,-0.177127 1.289095,-0.71835 1.466222,-1.377658 0.324733,-1.190691 0.324733,-3.690158 0.324733,-3.690158 0,0 -0.0098,-2.4896262 -0.334574,-3.6901576 z"
     id="path2"
     style="stroke-width:0.0984049" />
  <polygon
     fill="#ffffff"
     points="63.9,79.2 103.2,55 63.9,30.8 "
     id="polygon4"
     transform="matrix(0.0984042,0,0,0.0984042,0.22117746,2.4510409)" />
</svg>
