<?xml version="1.0" encoding="UTF-8" standalone="no"?>
<svg
   xmlns="http://www.w3.org/2000/svg"
   height="16"
   width="16"
   version="1.1"
   id="Layer_1"
   viewBox="0 0 16 16">
  <g
     id="g856"
     transform="matrix(0.03125,0,0,0.03125,-0.124999,6.0365159e-7)">
    <path
       id="path2"
       d="m 127.89869,7.8784306 c -17.61114,0 -32.020259,13.9568384 -32.020259,31.0151964 V 473.10637 c 0,17.05836 14.409119,31.0152 32.020259,31.0152 h 320.20262 c 17.61114,0 32.02026,-13.95684 32.02026,-31.0152 V 131.93922 L 352.04052,7.8784306 Z"
       style="fill:#ffffff;fill-opacity:1;stroke:#676767;stroke-width:15.7569;stroke-miterlimit:4;stroke-dasharray:none;stroke-opacity:1" />
    <path
       id="path4"
       d="m 384.06078,131.93922 h 96.06079 L 352.04052,7.8784306 V 100.92402 c 0,17.05836 14.40912,31.0152 32.02026,31.0152 z"
       style="fill:#b0b7bd;stroke-width:0.984804" />
    <polygon
       id="polygon6"
       points="480,224 384,128 480,128 "
       style="fill:#cad1d8"
       transform="matrix(1.0006332,0,0,0.96922488,-0.18235413,7.8784306)" />
  </g>
  <path
     id="path8"
     d="m 12.874999,12.999999 c 0,0.275 -0.225,0.5 -0.5,0.5 H 1.375 c -0.275,0 -0.5,-0.225 -0.5,-0.5 V 7.9999994 c 0,-0.275 0.225,-0.5 0.5,-0.5 h 10.999999 c 0.275,0 0.5,0.225 0.5,0.5 z"
     style="fill:#84bd5a;stroke-width:0.03125" />
  <g
     transform="matrix(0.0386955,0,0,0.03869552,-1.696763,-2.6511536)"
     id="g16">
    <path
       id="path10"
       d="m 144.336,326.192 22.256,-27.888 c 6.656,-8.704 19.584,2.416 12.288,10.736 -7.664,9.088 -15.728,18.944 -23.408,29.04 l 26.096,32.496 c 7.04,9.6 -7.024,18.8 -13.936,9.328 L 144.08,349.712 120.928,380.56 c -6.528,9.328 -20.992,-1.152 -13.696,-9.856 l 25.712,-32.624 c -8.064,-10.112 -15.872,-19.952 -23.664,-29.04 -8.048,-9.6 6.912,-19.44 12.8,-10.464 z"
       style="fill:#ffffff" />
    <path
       id="path12"
       d="m 197.36,303.152 c 0,-4.224 3.584,-7.808 8.064,-7.808 4.096,0 7.552,3.6 7.552,7.808 v 64.096 h 34.8 c 12.528,0 12.8,16.752 0,16.752 H 205.44 c -4.48,0 -8.064,-3.184 -8.064,-7.792 v -73.056 z"
       style="fill:#ffffff" />
    <path
       id="path14"
       d="m 272.032,314.672 c 2.944,-24.832 40.416,-29.296 58.08,-15.728 8.704,7.024 -0.512,18.16 -8.192,12.528 -9.472,-6 -30.96,-8.816 -33.648,4.464 -3.456,20.992 52.192,8.976 51.296,43.008 -0.896,32.496 -47.968,33.248 -65.632,18.672 -4.24,-3.456 -4.096,-9.072 -1.792,-12.544 3.328,-3.312 7.024,-4.464 11.392,-0.88 10.48,7.152 37.488,12.528 39.392,-5.648 -1.648,-18.912 -54.864,-7.536 -50.896,-43.872 z"
       style="fill:#ffffff" />
  </g>
  <path
     id="path18"
     d="M 12.374999,13.499999 H 2.875 v 0.5 h 9.499999 c 0.275,0 0.5,-0.225 0.5,-0.5 v -0.5 c 0,0.275 -0.225,0.5 -0.5,0.5 z"
     style="fill:#cad1d8;stroke-width:0.03125" />
</svg>
