<?xml version="1.0" encoding="UTF-8" standalone="no"?>
<svg
    xmlns:dc="http://purl.org/dc/elements/1.1/"
    xmlns:cc="http://creativecommons.org/ns#"
    xmlns:rdf="http://www.w3.org/1999/02/22-rdf-syntax-ns#"
    xmlns:svg="http://www.w3.org/2000/svg"
    xmlns="http://www.w3.org/2000/svg"
    xmlns:sodipodi="http://sodipodi.sourceforge.net/DTD/sodipodi-0.dtd"
    xmlns:inkscape="http://www.inkscape.org/namespaces/inkscape"
    inkscape:version="1.0 (4035a4fb49, 2020-05-01)"
    sodipodi:docname="mainbg.svg"
    id="svg871"
    version="1.1"
    viewBox="0 0 79 53"
    height="53mm"
    width="79mm"
>
    <rect
        style="fill:#f2f2f2; stroke:#f2f2f2; stroke-width:1;"
        width="79"
        height="53"
        x="0"
        y="0"
    />
    <path
        d="m 21.68668,20.63555 c -0.23101,-0.27997 -0.46094,-0.56956 -0.76259,-0.77144 -0.15082,-0.10094 -0.31891,-0.17852 -0.49701,-0.21341 -0.1781,-0.0349 -0.36659,-0.0257 -0.53579,0.0399 -0.1957,0.0759 -0.35917,0.22581 -0.4646,0.40734 -0.10542,0.18153 -0.1544,0.39315 -0.15435,0.60307 10e-5,0.41984 0.1899,0.81851 0.42996,1.16295 0.22383,0.32116 0.50356,0.61598 0.85842,0.78127 0.17743,0.0826 0.37194,0.13122 0.56767,0.13052 0.19573,-7e-4 0.39251,-0.0518 0.55829,-0.15584 0.25517,-0.16018 0.42439,-0.44206 0.46894,-0.74002 0.0446,-0.29796 -0.0302,-0.60817 -0.18546,-0.86637 -0.0812,-0.13511 -0.18315,-0.25638 -0.28348,-0.37798 z"
        style="fill:none;fill-opacity:1;stroke:#ffffff;stroke-width:0.7;stroke-linecap:round;stroke-linejoin:miter;stroke-miterlimit:4;stroke-dasharray:none;stroke-opacity:1" />
    <path
        d="m 23.76555,19.7851 c -0.96486,-0.94415 -2.10329,-1.68783 -3.2128,-2.45684 -0.75108,-0.52058 -1.50639,-1.06278 -2.37271,-1.35367 -0.43316,-0.14545 -0.89165,-0.22533 -1.34783,-0.19918 -0.45618,0.0262 -0.91017,0.16144 -1.28765,0.41892 -0.34265,0.23372 -0.61627,0.56472 -0.79227,0.9403 -0.176,0.37558 -0.25517,0.79452 -0.24042,1.20903 0.0295,0.82901 0.43613,1.62099 1.03269,2.1974 0.59601,0.57588 1.37486,0.95707 1.88989,1.60639 0.44758,0.56428 0.65508,1.28078 1.03943,1.88989 0.49205,0.77978 1.25717,1.35403 2.0748,1.78025 0.81763,0.42623 1.69645,0.71936 2.55541,1.05457 1.96992,0.76876 3.84295,1.76232 5.76414,2.64583 0.63277,0.291 1.28045,0.57296 1.96915,0.67673 0.34435,0.0519 0.69717,0.0581 1.04014,-0.002 0.34296,-0.0604 0.67605,-0.18863 0.95946,-0.39099 0.51708,-0.36921 0.84418,-0.98013 0.90189,-1.61287 0.0577,-0.63274 -0.14505,-1.27887 -0.52392,-1.78891 -0.2901,-0.39053 -0.67698,-0.7025 -1.09868,-0.94507 -0.4217,-0.24257 -0.87866,-0.41822 -1.3419,-0.56683 -0.92646,-0.29722 -1.89462,-0.49363 -2.75659,-0.94495 -0.8831,-0.46239 -1.6121,-1.17111 -2.27248,-1.9178 -0.66038,-0.7467 -1.26728,-1.54277 -1.97975,-2.23994 z"
        style="fill:none;fill-opacity:1;stroke:#ffffff;stroke-width:0.7;stroke-linecap:round;stroke-linejoin:miter;stroke-miterlimit:4;stroke-dasharray:none;stroke-opacity:1" />
    <path
        d="m 6.5649,14.79818 c 0.0177,0.41245 0.0531,1.23705 -0.32932,1.82551 -0.38238,0.58845 -1.20907,0.9528 -2.07551,0.80953 -0.86644,-0.14326 -1.786,-0.78859 -2.19309,-1.6473 -0.40709,-0.85871 -0.30065,-1.9377 0.1503,-2.64061 0.45094,-0.70291 1.21155,-1.01832 2.00742,-0.74924 0.79587,0.26909 1.60933,1.12952 2.01593,1.55959 0.40659,0.43007 0.40658,0.43007 0.42427,0.84252 z"
        style="fill:none;fill-opacity:1;stroke:#ffffff;stroke-width:0.7;stroke-linecap:round;stroke-linejoin:miter;stroke-miterlimit:4;stroke-dasharray:none;stroke-opacity:1" />
    <path
        d="m 0,9.97424 c 1.402251,-0.11096 2.331161,0.37802 3.659041,0.78305 1.32789,0.40502 2.86136,1.04397 5.16071,1.7054 2.29935,0.66142 5.38616,1.35438 7.85878,2.07887 2.47262,0.72449 4.33096,1.48043 5.79562,2.28369 1.46466,0.80326 2.53557,1.65368 3.45113,2.5655 0.91555,0.91181 1.73021,1.95457 2.91144,2.91521 1.18123,0.96064 2.7561,1.87407 3.77979,2.42526 1.02369,0.55119 1.49616,0.74017 2.25204,1.90572 0.75588,1.16554 1.79529,3.30736 1.32281,4.64585 -0.47247,1.33849 -2.45681,1.87394 -4.46079,1.87297 -2.00399,-9.8e-4 -4.012,-0.53436 -5.49246,-1.36897 -1.48045,-0.83461 -2.42537,-1.96851 -3.84854,-2.82079 -1.42317,-0.85229 -3.30146,-1.41577 -4.85257,-2.32126 -1.55111,-0.90549 -2.73267,-2.11815 -3.77798,-3.24302 -1.0453,-1.12487 -1.91552,-2.11941 -3.33293,-2.73375 -1.4174,-0.61434 -3.37024,-0.83482 -4.64604,-0.74036 -1.27579,0.0945 -1.87424,0.50393 -2.70891,0.49142 -0.83467,-0.0125 -1.93689,-0.45979 -3.523894,-1.50089"
        style="fill:none;fill-opacity:1;stroke:#ffffff;stroke-width:0.7;stroke-linecap:round;stroke-linejoin:miter;stroke-miterlimit:4;stroke-dasharray:none;stroke-opacity:1" />
    <path
        d="m 9.18043,0 c 0.89475,0.40573 0.56337,0.25999 0.76326,0.49321 0.1999,0.23321 0.33035,0.52521 0.37067,0.82971 0.0368,0.27797 -0.001,0.56546 -0.1089,0.82437 -0.10763,0.25891 -0.28452,0.48861 -0.50718,0.65904 -0.24536,0.1878 -0.54295,0.30212 -0.84845,0.34838 -0.3055,0.0463 -0.61887,0.0261 -0.92123,-0.0375 -0.60472,-0.12725 -1.15858,-0.42281 -1.70483,-0.71176 -1.51273,-0.80018 -3.03832,-1.57603 -4.576,-2.32715"
        style="fill:none;fill-opacity:1;stroke:#ffffff;stroke-width:0.7;stroke-linecap:round;stroke-linejoin:miter;stroke-miterlimit:4;stroke-dasharray:none;stroke-opacity:1" />
    <path
        d="m 13.40551,0 c 0.95601,0.75964 1.4532,1.51949 1.60362,2.53906 0.10615,0.71953 -0.005,1.46919 -0.3127,2.12834 -0.30743,0.65915 -0.80927,1.2256 -1.42455,1.61343 -0.89952,0.567 -2.00645,0.73861 -3.06624,0.65214 -1.05979,-0.0865 -2.0845,-0.41469 -3.08096,-0.78578 -2.45411,-0.91392 -4.8056,-2.10306 -7.196257,-3.63796"
        style="fill:none;fill-opacity:1;stroke:#ffffff;stroke-width:0.7;stroke-linecap:round;stroke-linejoin:miter;stroke-miterlimit:4;stroke-dasharray:none;stroke-opacity:1" />
    <path
        d="m 0,6.29144 c 0.14204,0.1 2.342785,1.51237 3.590775,1.99539 2.38062,0.92138 4.89517,1.45527 7.37053,2.07887 1.68959,0.42565 3.37459,0.91118 5.10268,1.13393 1.65688,0.21357 3.45065,-0.4151 5.00819,0.18899 2.00038,0.77584 3.26083,2.7897 4.91369,4.15773 0.6556,0.54262 1.48876,0.91457 1.98437,1.6064 0.37142,0.51848 0.23338,1.32261 0.66146,1.79539 0.82261,0.90851 2.24913,0.98804 3.30729,1.6064 0.42999,0.25127 0.80494,0.58835 1.22842,0.85044 0.61135,0.37836 1.42956,0.48717 1.88989,1.03944 0.63775,0.76512 0.49007,1.94869 0.94494,2.83482 0.51502,1.00332 1.2883,1.85298 1.98437,2.74033 0.84135,1.07256 2.06627,1.88447 2.64584,3.1183 0.46236,0.9843 0.90491,2.17917 0.56696,3.2128 -0.32539,0.9952 -1.23365,2.00993 -2.26786,2.17336 -1.07144,0.16932 -1.84539,-1.37529 -2.92931,-1.41741 -1.55471,-0.0604 -2.79473,1.81085 -4.34673,1.70089 -0.83009,-0.0588 -1.40047,-0.91997 -2.17336,-1.22842 -0.72372,-0.28882 -1.5925,-0.17828 -2.26786,-0.56696 -1.3707,-0.78888 -1.92735,-2.62919 -3.30729,-3.40179 -1.12683,-0.63089 -2.58646,-0.35669 -3.77976,-0.85044 -1.96216,-0.81187 -3.38008,-2.70546 -5.38616,-3.40179 -1.13699,-0.39466 -2.38829,-0.42812 -3.59078,-0.37798 -0.67276,0.0281 -1.31275,0.42619 -1.98437,0.37798 -2.02683,-0.1455 -3.8683,-1.25293 -5.76414,-1.98438 -1.11901,-0.63174 -3.307291,-1.71741 -3.507291,-1.90741"
        style="fill:none;fill-opacity:1;stroke:#ffffff;stroke-width:0.7;stroke-linecap:round;stroke-linejoin:miter;stroke-miterlimit:4;stroke-dasharray:none;stroke-opacity:1" />
    <path
        d="m 68.83921,17.89522 c -0.25345,-0.096 -0.53107,-0.10012 -0.80207,-0.10092 -0.271,-8e-4 -0.54792,-3.5e-4 -0.80433,-0.0881 -0.26486,-0.0906 -0.48884,-0.26868 -0.72547,-0.41824 -0.11832,-0.0748 -0.24156,-0.14327 -0.37363,-0.18961 -0.13208,-0.0463 -0.27381,-0.07 -0.41281,-0.0536 -0.21958,0.0259 -0.41538,0.14835 -0.59143,0.28213 -0.17604,0.13378 -0.34322,0.28352 -0.54249,0.37932 -0.2024,0.0973 -0.42877,0.1342 -0.65293,0.1477 -0.22417,0.0135 -0.44918,0.005 -0.67345,0.0163 -0.22427,0.0115 -0.4509,0.0444 -0.65577,0.13635 -0.20488,0.092 -0.38743,0.24871 -0.4747,0.45563 -0.0757,0.17939 -0.0747,0.38633 -0.0151,0.57165 0.0597,0.18532 0.17529,0.34969 0.31691,0.48328 0.28325,0.26719 0.65844,0.40961 1.02106,0.55147 0.6697,0.26199 1.33346,0.54428 2.02552,0.73969 0.69206,0.1954 1.4197,0.30244 2.13222,0.20525 0.35421,-0.0483 0.70384,-0.14786 1.01781,-0.31878 0.31398,-0.17093 0.59153,-0.4154 0.77758,-0.72066 0.21335,-0.35005 0.29933,-0.78289 0.20225,-1.18117 -0.0485,-0.19914 -0.14176,-0.38778 -0.27398,-0.54441 -0.13221,-0.15663 -0.30353,-0.28072 -0.49523,-0.35329 z"
        style="fill:none;fill-opacity:1;stroke:#ffffff;stroke-width:0.7;stroke-linecap:round;stroke-linejoin:miter;stroke-miterlimit:4;stroke-dasharray:none;stroke-opacity:1" />
    <path
        d="m 70.44561,8.91829 c 0.23786,-0.16045 0.41518,-0.40209 0.52189,-0.66843 0.10672,-0.26633 0.14549,-0.55662 0.13957,-0.84348 -0.006,-0.30077 -0.0612,-0.60167 -0.17446,-0.88037 -0.11327,-0.27869 -0.28568,-0.53477 -0.51045,-0.73473 -0.22477,-0.19995 -0.50249,-0.34245 -0.79863,-0.39542 -0.29613,-0.053 -0.60997,-0.0143 -0.87882,0.12064 -0.35612,0.17882 -0.6177,0.51965 -0.73996,0.89893 -0.12226,0.37928 -0.11267,0.79335 -0.016,1.17994 0.13238,0.52932 0.44088,1.02929 0.90725,1.31249 0.23318,0.14159 0.50233,0.22631 0.77508,0.23205 0.27274,0.006 0.54836,-0.0691 0.77452,-0.22162 z"
        style="fill:none;fill-opacity:1;stroke:#ffffff;stroke-width:0.7;stroke-linecap:round;stroke-linejoin:miter;stroke-miterlimit:4;stroke-dasharray:none;stroke-opacity:1" />
    <path
        d="m 65.15394,6.55594 c -0.25231,-0.28948 -0.63236,-0.45869 -1.0162,-0.47018 -0.38383,-0.0115 -0.76711,0.13051 -1.06267,0.37568 -0.26366,0.21871 -0.45565,0.51093 -0.62318,0.80974 -0.16752,0.29881 -0.3153,0.60982 -0.51075,0.89116 -0.38215,0.55007 -0.92723,0.96097 -1.41741,1.41741 -0.2717,0.25299 -0.53656,0.5353 -0.65057,0.88861 -0.057,0.17666 -0.0734,0.36859 -0.0302,0.54911 0.0433,0.18052 0.14883,0.34841 0.30275,0.45216 0.16052,0.1082 0.3652,0.14119 0.55627,0.11007 0.19107,-0.0311 0.36893,-0.12272 0.52034,-0.24334 0.30283,-0.24125 0.4984,-0.58784 0.71878,-0.90617 0.32082,-0.46343 0.72002,-0.89058 1.22843,-1.13393 0.2755,-0.13187 0.57431,-0.20582 0.86721,-0.29245 0.29289,-0.0866 0.58678,-0.18919 0.83368,-0.369 0.31787,-0.2315 0.54251,-0.59088 0.59954,-0.97995 0.057,-0.38907 -0.0577,-0.80248 -0.31606,-1.09892 z"
        style="fill:none;fill-opacity:1;stroke:#ffffff;stroke-width:0.7;stroke-linecap:round;stroke-linejoin:miter;stroke-miterlimit:4;stroke-dasharray:none;stroke-opacity:1" />
    <path
        d="m 73.7529,6.93391 c -0.26574,-0.80199 -0.90599,-1.43569 -1.63066,-1.87004 -0.72467,-0.43436 -1.5376,-0.69457 -2.33809,-0.96478 -0.67422,-0.22758 -1.34884,-0.46572 -2.04986,-0.58798 -0.70102,-0.12227 -1.4377,-0.12373 -2.10788,0.11551 -0.38783,0.13845 -0.74291,0.35312 -1.1077,0.54417 -0.3648,0.19106 -0.75021,0.36186 -1.16016,0.40077 -0.26918,0.0256 -0.54001,-0.007 -0.81019,-0.0172 -0.27019,-0.0105 -0.54889,0.002 -0.79621,0.11168 -0.17303,0.0764 -0.32391,0.19767 -0.45005,0.33863 -0.12614,0.14097 -0.22857,0.30161 -0.3199,0.46726 -0.18266,0.33131 -0.32464,0.68782 -0.55296,0.98949 -0.23708,0.31325 -0.55589,0.55253 -0.85613,0.80588 -0.30024,0.25335 -0.5931,0.53498 -0.75027,0.89502 -0.11238,0.25744 -0.14886,0.54028 -0.19774,0.8169 -0.0489,0.27662 -0.11459,0.5587 -0.27473,0.78949 -0.10725,0.15457 -0.25281,0.27945 -0.40998,0.38285 -0.15717,0.10341 -0.32657,0.18657 -0.49506,0.27028 -0.16848,0.0837 -0.33716,0.16862 -0.49224,0.27513 -0.15508,0.10651 -0.29709,0.23595 -0.39811,0.39466 -0.11634,0.18279 -0.1745,0.40053 -0.17411,0.6172 3.9e-4,0.21667 0.0583,0.43188 0.15839,0.62404 0.20021,0.38433 0.56224,0.66719 0.96066,0.83763 0.63841,0.27311 1.3682,0.27608 2.04519,0.12169 0.67699,-0.1544 1.31032,-0.45744 1.92356,-0.78315 1.39424,-0.74052 2.77672,-1.63003 4.34673,-1.79538 0.89756,-0.0945 1.80023,0.0563 2.6944,0.17871 0.89417,0.12247 1.81298,0.21593 2.69176,0.0103 0.86156,-0.20163 1.66186,-0.70497 2.15964,-1.43651 0.24889,-0.36578 0.42091,-0.78478 0.49162,-1.22151 0.0707,-0.43674 0.0392,-0.89076 -0.0999,-1.31073 z"
        style="fill:none;fill-opacity:1;stroke:#ffffff;stroke-width:0.7;stroke-linecap:round;stroke-linejoin:miter;stroke-miterlimit:4;stroke-dasharray:none;stroke-opacity:1" />
    <path
        d="m 61.56317,29.329 c -0.80233,-0.20986 -1.65592,-0.13652 -2.46167,0.0598 -0.80575,0.19633 -1.57652,0.51173 -2.35753,0.79065 -0.31906,0.11395 -0.64292,0.22317 -0.9337,0.39704 -0.29078,0.17386 -0.55032,0.42097 -0.6727,0.73689 -0.10859,0.28033 -0.10081,0.59897 -0.005,0.88378 0.0962,0.28481 0.27688,0.53677 0.49721,0.7413 0.44065,0.40905 1.02154,0.62536 1.58625,0.83176 1.15826,0.42334 2.36135,0.85246 3.59077,0.75595 0.73563,-0.0577 1.46724,-0.31495 2.02478,-0.7983 0.27877,-0.24167 0.51161,-0.5378 0.67073,-0.87067 0.15912,-0.33287 0.24359,-0.70254 0.23381,-1.07135 -0.0156,-0.58637 -0.27236,-1.1556 -0.67166,-1.5853 -0.39929,-0.42969 -0.93421,-0.72312 -1.5017,-0.87155 z"
        style="fill:none;fill-opacity:1;stroke:#ffffff;stroke-width:0.7;stroke-linecap:round;stroke-linejoin:miter;stroke-miterlimit:4;stroke-dasharray:none;stroke-opacity:1" />
    <path
        d="m 38.4988,0 l 4.63803,1.54775 c 0.41341,0.4786 0.98723,0.81614 1.6064,0.94494 0.7949,0.16535 1.61677,-0.008 2.40965,-0.18245 0.79289,-0.17476 1.6129,-0.35227 2.40954,-0.19552 0.75655,0.14886 1.44303,0.60436 1.89787,1.22698 0.45483,0.62263 0.67929,1.40417 0.65347,2.1748 -0.041,1.22298 -0.70142,2.37451 -1.62646,3.17556 -0.92503,0.80104 -2.0938,1.27879 -3.28723,1.54914 -1.32927,0.30113 -2.72823,0.35774 -4.05228,0.0344 -1.32406,-0.32329 -2.569,-1.04293 -3.41275,-2.11331 -0.75335,-0.9557 -1.16232,-2.14283 -1.88988,-3.11831 -0.43001,-0.57653 -0.9684,-1.0751 -1.32292,-1.70089 -0.32685,-0.57694 -0.4852,-1.24195 -0.85044,-1.79539 -0.35393,-0.5363 -0.89797,-0.94432 -2.31191,-1.73393"
        style="fill:none;fill-opacity:1;stroke:#ffffff;stroke-width:0.7;stroke-linecap:round;stroke-linejoin:miter;stroke-miterlimit:4;stroke-dasharray:none;stroke-opacity:1" />
    <path
        d="m 27.1398,0 c 1.61101,0.85816 2.15964,1.20614 3.11831,1.98437 1.66271,1.34976 3.03609,3.01402 4.44122,4.63021 1.49179,1.71585 3.0347,3.39267 4.7247,4.91369 3.11128,2.80019 6.82865,5.09911 10.96131,5.76414 1.06679,0.17167 2.14927,0.23294 3.21475,0.41259 1.06547,0.17965 2.13147,0.48716 3.02185,1.09932 0.68176,0.46873 1.23645,1.09893 1.88989,1.60639 0.99261,0.77086 2.18876,1.23906 3.40266,1.56455 1.2139,0.3255 2.4592,0.5178 3.68439,0.79781 2.32568,0.53152 4.58862,1.38615 6.61458,2.64583 1.30998,0.81451 2.53145,1.80233 3.96875,2.36235 0.90185,0.35139 1.87284,0.52432 2.84056,0.50588"
        style="fill:none;fill-opacity:1;stroke:#ffffff;stroke-width:0.7;stroke-linecap:round;stroke-linejoin:miter;stroke-miterlimit:4;stroke-dasharray:none;stroke-opacity:1" />
    <path
        d="m 79.51703,40.4793 c -0.47295,0.0552 -0.95597,0.023 -1.41741,-0.0945 -0.74469,-0.18966 -1.42304,-0.59875 -1.98922,-1.11834 -0.56618,-0.5196 -1.02479,-1.14753 -1.41256,-1.81098 -0.43797,-0.74935 -0.80055,-1.56276 -1.41741,-2.17336 -0.41025,-0.40608 -0.91634,-0.70376 -1.44194,-0.94238 -0.52561,-0.23863 -1.07428,-0.42179 -1.61373,-0.62723 -0.53944,-0.20544 -1.074,-0.43544 -1.55256,-0.75821 -0.47856,-0.32278 -0.90167,-0.74472 -1.15591,-1.26296 -0.30765,-0.62711 -0.35333,-1.3575 -0.66146,-1.98437 -0.37098,-0.75473 -1.09572,-1.28982 -1.87928,-1.59523 -0.78356,-0.30542 -1.63008,-0.40574 -2.46744,-0.48364 -1.51152,-0.14063 -3.04964,-0.21539 -4.53572,0.0945 -1.07824,0.22484 -2.11649,0.64983 -3.2128,0.75596 -1.09418,0.10592 -2.19723,-0.11223 -3.24448,-0.44648 -1.04725,-0.33426 -2.05362,-0.78392 -3.08662,-1.15992 -0.70998,-0.25842 -1.43387,-0.48257 -2.12219,-0.79412 -0.68832,-0.31156 -1.34726,-0.7177 -1.84656,-1.28475 -0.49339,-0.56034 -0.8091,-1.25057 -1.1351,-1.92223 -0.326,-0.67167 -0.67988,-1.3498 -1.22725,-1.85753 -0.71891,-0.66685 -1.70423,-0.97783 -2.45684,-1.6064 -0.5515,-0.46061 -0.9532,-1.07033 -1.38073,-1.64786 -0.42753,-0.57753 -0.90724,-1.14643 -1.54859,-1.47045 -0.67724,-0.34216 -1.4694,-0.37832 -2.17336,-0.66145 -0.70996,-0.28554 -1.29847,-0.80967 -1.81107,-1.37784 -0.5126,-0.56816 -0.96494,-1.18973 -1.49622,-1.74047 -0.66664,-0.69105 -1.46022,-1.27437 -1.98438,-2.07887 -0.33063,-0.50746 -0.54483,-1.10805 -0.50693,-1.71253 0.0189,-0.30225 0.10138,-0.6018 0.25142,-0.86486 0.15004,-0.26305 0.36863,-0.48857 0.63349,-0.6354 0.40758,-0.22596 0.90728,-0.25442 1.35728,-0.13323 0.44999,0.12118 0.85322,0.38236 1.19406,0.70019 0.79476,0.74111 1.25466,1.76413 1.88988,2.64583 0.73332,1.01786 1.70237,1.84675 2.74033,2.55134 2.13794,1.45128 4.58362,2.40474 6.70907,3.87426 0.65391,0.45211 1.30221,0.96421 2.07887,1.13393 0.39265,0.0858 0.7986,0.0788 1.19988,0.10136 0.40128,0.0226 0.81251,0.079 1.16247,0.27661 0.35459,0.20026 0.61756,0.52954 0.83955,0.87095 0.22199,0.34141 0.41352,0.70454 0.67236,1.01893 0.42605,0.51747 1.01758,0.87925 1.64285,1.12075 0.62528,0.24151 1.28764,0.3702 1.94792,0.48565 2.26297,0.39569 4.57688,0.65673 6.70908,1.51191 0.71979,0.28869 1.41234,0.64296 2.07887,1.03943 0.82594,0.49129 1.62847,1.05488 2.55134,1.32292 0.41452,0.1204 0.84433,0.17811 1.26557,0.27233 0.42125,0.0942 0.84255,0.22922 1.19127,0.48362 0.30745,0.2243 0.54395,0.53051 0.7705,0.83631 0.22655,0.30579 0.45071,0.61895 0.74141,0.86458 0.52246,0.44146 1.21182,0.62597 1.88453,0.74971 0.67271,0.12373 1.36408,0.20226 1.98972,0.47872 0.86573,0.38255 1.52474,1.1061 2.17337,1.79538 0.75132,0.79839 1.53261,1.58371 2.45684,2.17337 0.80743,0.51514 1.71528,0.87222 2.65729,1.04517"
        style="fill:none;fill-opacity:1;stroke:#ffffff;stroke-width:0.7;stroke-linecap:round;stroke-linejoin:miter;stroke-miterlimit:4;stroke-dasharray:none;stroke-opacity:1" />
    <path
        d="m 75.66548,0 c 1.19881,0.61877 1.17323,0.7067 1.71706,1.12214 0.59327,0.4532 1.15011,0.95407 1.7634,1.39619"
        style="fill:none;fill-opacity:1;stroke:#ffffff;stroke-width:0.7;stroke-linecap:round;stroke-linejoin:miter;stroke-miterlimit:4;stroke-dasharray:none;stroke-opacity:1" />
    <path
        d="m 52.07157,0 c 0.49659,0.39754 1.06871,0.70039 1.67667,0.88754 1.06754,0.32863 2.23519,0.29304 3.29924,-0.0467 0.59802,-0.19094 1.16597,-0.47576 1.67667,-0.84083"
        style="fill:none;fill-opacity:1;stroke:#ffffff;stroke-width:0.7;stroke-linecap:round;stroke-linejoin:miter;stroke-miterlimit:4;stroke-dasharray:none;stroke-opacity:1" />
    <path
        d="m 79.51703,9.71048 c -0.38624,0.39017 -0.73951,0.44709 -1.03943,0.75595 -0.43047,0.4433 -0.74497,0.98452 -1.13393,1.46466 -0.16278,0.20093 -0.33906,0.39175 -0.48325,0.60641 -0.14419,0.21466 -0.25663,0.45841 -0.2727,0.7165 -0.0169,0.27202 0.0739,0.53991 0.19258,0.78528 0.11865,0.24537 0.26606,0.47653 0.37438,0.72663 0.24383,0.56295 0.27779,1.19013 0.37798,1.79538 0.0404,0.24393 0.0927,0.88824 0.19438,0.91362 0.10168,0.22538 0.25649,0.43248 0.46708,0.66205 0.24712,0.27205 0.55091,0.58742 0.8032,0.83073 0.1858,0.18555 0.33815,0.36903 0.43034,0.4618"
        style="fill:none;fill-opacity:1;stroke:#ffffff;stroke-width:0.7;stroke-linecap:round;stroke-linejoin:miter;stroke-miterlimit:4;stroke-dasharray:none;stroke-opacity:1" />
    <path
        d="m 79.51703,6.60319 c -1.0907,-0.8328 -2.22688,-1.60603 -3.40178,-2.31511 -1.90057,-1.14704 -3.8982,-2.12391 -5.90588,-3.07106 -0.98811,-0.46615 -2.02641,-0.93563 -3.1183,-0.89769 -0.64048,0.0223 -1.26221,0.21983 -1.85702,0.45839 -0.59481,0.23856 -1.17306,0.52004 -1.78101,0.72279 -1.04423,0.34826 -2.15339,0.45699 -3.21279,0.75595 -0.82225,0.23203 -1.64545,0.60392 -2.17336,1.27567 -0.2004,0.255 -0.35121,0.54449 -0.51221,0.82602 -0.161,0.28153 -0.33621,0.56036 -0.57448,0.78038 -0.21371,0.19734 -0.47462,0.344 -0.66145,0.56696 -0.16932,0.20206 -0.26683,0.45423 -0.34112,0.70717 -0.0743,0.25294 -0.12859,0.51247 -0.22585,0.75749 -0.15693,0.39532 -0.41983,0.7386 -0.69174,1.06567 -0.27191,0.32706 -0.55796,0.64619 -0.77292,1.0132 -0.16298,0.27827 -0.28242,0.57969 -0.43338,0.86465 -0.15097,0.28497 -0.33985,0.55972 -0.60605,0.74175 -0.23477,0.16054 -0.51412,0.23892 -0.78288,0.33196 -0.26876,0.0931 -0.54167,0.21001 -0.72903,0.42399 -0.13816,0.15779 -0.21969,0.35799 -0.2705,0.56147 -0.0508,0.20348 -0.0731,0.4128 -0.10747,0.6197 -0.0328,0.1976 -0.0767,0.39394 -0.0904,0.59378 -0.0137,0.19983 0.004,0.40645 0.0904,0.5874 0.11078,0.23334 0.32456,0.40351 0.55452,0.52114 0.22996,0.11763 0.47976,0.19015 0.72115,0.28206 0.8895,0.33869 1.66101,0.93916 2.55134,1.27567 1.32778,0.50186 2.80523,0.37749 4.20498,0.14174 1.74545,-0.29397 3.45967,-0.74896 5.19718,-1.08668 1.33846,-0.26016 2.71006,-0.45095 4.06324,-0.28348 0.44969,0.0557 0.89896,0.1522 1.30865,0.34579 0.40969,0.19358 0.77965,0.49035 1.00645,0.88263 0.13525,0.23393 0.21638,0.49435 0.31844,0.74455 0.10205,0.2502 0.23109,0.49849 0.43751,0.67286 0.13112,0.11076 0.28845,0.18703 0.45099,0.24218 0.16254,0.0551 0.33111,0.0901 0.49899,0.12579 0.16789,0.0357 0.33618,0.0725 0.49747,0.13124 0.16129,0.0587 0.31632,0.14032 0.44244,0.25674 0.19142,0.1767 0.30576,0.42456 0.36263,0.67879 0.0569,0.25423 0.0606,0.51703 0.0599,0.77754 -6.8e-4,0.26051 -0.005,0.52252 0.0354,0.77982 0.0408,0.2573 0.13027,0.51275 0.29801,0.71207 0.12004,0.14264 0.27647,0.25197 0.44513,0.33139 0.16867,0.0794 0.34968,0.1299 0.53251,0.16636 0.36566,0.0729 0.74226,0.0913 1.10123,0.19205 0.75124,0.21092 1.35322,0.75809 1.93713,1.27567 0.3426,0.30368 0.68912,0.60295 1.03943,0.8977"
        style="fill:none;fill-opacity:1;stroke:#ffffff;stroke-width:0.7;stroke-linecap:round;stroke-linejoin:miter;stroke-miterlimit:4;stroke-dasharray:none;stroke-opacity:1" />
    <path
        d="m 66.5241,44.73153 c -0.14471,-0.37318 -0.37677,-0.71612 -0.68889,-0.96668 -0.31212,-0.25057 -0.70625,-0.40476 -1.1065,-0.40348 -0.37532,0.001 -0.74469,0.13856 -1.04642,0.36177 -0.30174,0.2232 -0.53749,0.52917 -0.70171,0.86665 -0.30459,0.62595 -0.36178,1.37119 -0.14174,2.03162 0.13508,0.40543 0.37434,0.78001 0.70578,1.04978 0.33144,0.26976 0.757,0.42969 1.18409,0.41488 0.33241,-0.0115 0.65791,-0.12748 0.93367,-0.31344 0.27576,-0.18597 0.50259,-0.44019 0.67273,-0.72599 0.40997,-0.68866 0.47876,-1.56787 0.18899,-2.31511 z"
        style="fill:none;fill-opacity:1;stroke:#ffffff;stroke-width:0.7;stroke-linecap:round;stroke-linejoin:miter;stroke-miterlimit:4;stroke-dasharray:none;stroke-opacity:1" />
    <path
        d="m 76.30424,53.18875 c -1.13103,-0.70657 -2.22024,-1.48007 -3.26005,-2.3151 -0.79822,-0.64103 -1.58824,-1.3451 -2.03162,-2.26786 -0.24955,-0.51936 -0.37838,-1.0866 -0.54663,-1.63769 -0.16826,-0.55108 -0.38603,-1.10395 -0.77629,-1.52786 -0.11397,-0.1238 -0.24107,-0.23476 -0.35936,-0.35443 -0.11829,-0.11968 -0.229,-0.24997 -0.3021,-0.40153 -0.10739,-0.22264 -0.12717,-0.47693 -0.12633,-0.72412 8.3e-4,-0.24718 0.0204,-0.49595 -0.0154,-0.74053 -0.0544,-0.37184 -0.23541,-0.71647 -0.46869,-1.0111 -0.23328,-0.29463 -0.51814,-0.54388 -0.80698,-0.78429 -0.72845,-0.6063 -1.5276,-1.18379 -2.45684,-1.37016 -0.57874,-0.11608 -1.18197,-0.0727 -1.75536,0.0674 -0.57338,0.14017 -1.11967,0.37491 -1.64643,0.64126 -0.72887,0.36855 -1.45078,0.82324 -1.88988,1.51191 -0.3893,0.61056 -0.52061,1.35476 -0.51971,2.07887 0.002,1.23602 0.36047,2.4392 0.66145,3.63802 0.15704,0.62552 0.29962,1.25925 0.325,1.90368 0.0254,0.64443 -0.072,1.30526 -0.3722,1.87608 -0.15757,0.29965 -0.36869,0.57009 -0.61421,0.8032 -0.26405,0.25071 -0.56837,0.45892 -0.8977,0.61421"
        style="fill:none;fill-opacity:1;stroke:#ffffff;stroke-width:0.7;stroke-linecap:round;stroke-linejoin:miter;stroke-miterlimit:4;stroke-dasharray:none;stroke-opacity:1" />
    <path
        d="m 43.98727,46.99939 c -0.0489,0.47718 -0.23075,0.94004 -0.51971,1.32292 -0.0859,0.11377 -0.18138,0.22128 -0.25088,0.34571 -0.0347,0.0622 -0.0628,0.12859 -0.0781,0.19819 -0.0153,0.0696 -0.0177,0.14259 -0.002,0.21205 0.0227,0.0991 0.082,0.18747 0.15725,0.25581 0.0753,0.0683 0.166,0.11777 0.26013,0.15615 0.18826,0.0768 0.39277,0.11169 0.5748,0.20225 0.14394,0.0716 0.26886,0.17555 0.40341,0.26355 0.13455,0.088 0.28627,0.16205 0.44704,0.16167 0.0959,-2.3e-4 0.19056,-0.0273 0.27613,-0.0705 0.0856,-0.0432 0.16245,-0.10218 0.23243,-0.1677 0.13995,-0.13104 0.25312,-0.28812 0.38913,-0.42324 0.16334,-0.16227 0.35685,-0.29024 0.5377,-0.43274 0.18086,-0.14249 0.35359,-0.30525 0.45449,-0.51221 0.12729,-0.2611 0.12622,-0.57557 0.0228,-0.84701 -0.10341,-0.27145 -0.30306,-0.50051 -0.54254,-0.66489 -0.31523,-0.21638 -0.70661,-0.32517 -1.08668,-0.28348 -0.25852,0.0284 -0.50438,0.12304 -0.75595,0.18899 z"
        style="fill:none;fill-opacity:1;stroke:#ffffff;stroke-width:0.7;stroke-linecap:round;stroke-linejoin:miter;stroke-miterlimit:4;stroke-dasharray:none;stroke-opacity:1" />
    <path
        d="m 43.46756,44.92052 c -0.25384,0.28125 -0.5927,0.48473 -0.96024,0.57662 -0.36755,0.0919 -0.7623,0.0718 -1.11863,-0.0569 -0.17156,-0.062 -0.33455,-0.14844 -0.51099,-0.19474 -0.0882,-0.0232 -0.17979,-0.036 -0.27078,-0.0297 -0.091,0.006 -0.18153,0.0325 -0.25767,0.0827 -0.0888,0.0586 -0.15473,0.14767 -0.19796,0.2449 -0.0432,0.0972 -0.0651,0.20267 -0.0786,0.30822 -0.027,0.21109 -0.0228,0.43033 -0.10147,0.62805 -0.0958,0.24061 -0.30145,0.41779 -0.50378,0.57944 -0.20232,0.16165 -0.41514,0.32526 -0.53565,0.55449 -0.1163,0.22123 -0.13383,0.48268 -0.10542,0.731 0.0284,0.24831 0.0998,0.48938 0.15262,0.73366 0.0526,0.24287 0.087,0.48953 0.14475,0.7312 0.0578,0.24168 0.1405,0.48089 0.28047,0.68621 0.16604,0.24356 0.40583,0.42894 0.6624,0.57407 0.25657,0.14513 0.53193,0.25334 0.80226,0.37087 0.78192,0.33994 1.52733,0.76054 2.3151,1.08668 0.4511,0.18676 0.91943,0.34305 1.40458,0.39783 0.48515,0.0548 0.99055,0.003 1.43025,-0.20884 0.25422,-0.1227 0.48531,-0.29774 0.75595,-0.37798 0.19389,-0.0575 0.3986,-0.0633 0.60001,-0.0814 0.20142,-0.0181 0.40763,-0.0509 0.58116,-0.15479 0.18935,-0.11332 0.32315,-0.30244 0.41319,-0.5039 0.09,-0.20147 0.14107,-0.41766 0.20102,-0.63003 0.18946,-0.67116 0.47132,-1.31341 0.66146,-1.98438 0.16996,-0.59974 0.26583,-1.22384 0.23993,-1.84666 -0.0259,-0.62281 -0.17627,-1.24489 -0.47616,-1.79136 -0.12491,-0.22762 -0.27694,-0.44338 -0.47247,-0.61421 -0.24512,-0.21416 -0.55324,-0.35121 -0.8734,-0.40989 -0.32016,-0.0587 -0.65197,-0.0408 -0.96924,0.0319 -0.47124,0.10804 -0.90713,0.33341 -1.37016,0.47247 -0.59474,0.17862 -1.23273,0.21134 -1.64263,0.0945 z"
        style="fill:none;fill-opacity:1;stroke:#ffffff;stroke-width:0.7;stroke-linecap:round;stroke-linejoin:miter;stroke-miterlimit:4;stroke-dasharray:none;stroke-opacity:1" />
    <path
        d="m 9.78043,53.236 c -1.02068,-0.46132 -2.02909,-0.94977 -3.02381,-1.46466 -0.84619,-0.43801 -1.68885,-0.89785 -2.59859,-1.18118 -0.65665,-0.20451 -1.36565,-0.3135 -2.03162,-0.14174 -0.27134,0.07 -0.53288,0.18712 -0.75176,0.36208 -0.21889,0.17496 -0.39363,0.40973 -0.476663,0.67736 -0.111435,0.3592 -0.04912,0.76262 0.141743,1.08668 0.17827,0.30269 0.46603,0.5393 0.79746,0.65572"
        style="fill:none;fill-opacity:1;stroke:#ffffff;stroke-width:0.7;stroke-linecap:round;stroke-linejoin:miter;stroke-miterlimit:4;stroke-dasharray:none;stroke-opacity:1" />
    <path
        d="m 0,45.01868 c 0.822396,0.014 1.352286,0.14624 1.984956,0.38884 0.79992,0.30674 1.53756,0.79646 2.08178,1.45811 0.28587,0.34756 0.51699,0.73935 0.82303,1.06929 0.52322,0.56407 1.23056,0.91288 1.88813,1.3123 1.14171,0.69349 2.1998,1.58259 3.48577,1.94415 0.34318,0.0965 0.69659,0.15319 1.03965,0.25011 0.34306,0.0969 0.68208,0.23853 0.94531,0.47894 0.20361,0.18596 0.353,0.42256 0.53255,0.63185 0.44155,0.28157 0.73971,0.51438 0.87144,0.68045"
        style="fill:none;fill-opacity:1;stroke:#ffffff;stroke-width:0.7;stroke-linecap:round;stroke-linejoin:miter;stroke-miterlimit:4;stroke-dasharray:none;stroke-opacity:1" />
    <path
        d="m 0,40.53333 c 1.383845,0.02617 1.747665,1.22617 2.247665,1.72617 0.96645,0.54625 1.99555,0.98155 3.06063,1.29462 0.6358,0.18688 1.29435,0.33449 1.86508,0.67129 0.65976,0.38934 1.15781,1.0088 1.53031,1.67822 0.24665,0.44326 0.44417,0.91231 0.68711,1.35761 0.24294,0.4453 0.53774,0.87318 0.93885,1.18369 0.48751,0.3774 1.09482,0.55531 1.67379,0.76718 1.27464,0.46643 2.46913,1.12819 3.73015,1.63028 0.67879,0.27027 1.39066,0.50199 1.96071,0.95898 0.34371,0.27554 0.62277,0.62343 0.95645,0.91104 0.24544,0.21155 0.51977,0.38952 0.81298,0.52743"
        style="fill:none;fill-opacity:1;stroke:#ffffff;stroke-width:0.7;stroke-linecap:round;stroke-linejoin:miter;stroke-miterlimit:4;stroke-dasharray:none;stroke-opacity:1" />
    <path
        d="m 27.65632,53.236 c -1.07801,-0.69793 -2.14902,-1.40668 -3.2128,-2.12612 -1.09556,-0.74093 -2.20016,-1.50176 -3.44903,-1.93713 -0.53793,-0.18753 -1.09683,-0.31233 -1.62901,-0.51563 -0.53217,-0.20329 -1.04863,-0.49659 -1.3948,-0.94903 -0.16482,-0.21541 -0.28789,-0.46271 -0.47247,-0.66145 -0.21587,-0.23242 -0.50216,-0.38422 -0.77756,-0.54162 -0.27539,-0.1574 -0.55325,-0.33188 -0.73434,-0.59231 -0.19225,-0.27648 -0.25509,-0.6197 -0.31791,-0.95054 -0.0628,-0.33084 -0.13616,-0.67403 -0.34355,-0.93934 -0.13461,-0.1722 -0.31678,-0.29953 -0.49118,-0.43127 -0.17441,-0.13173 -0.34783,-0.27525 -0.45376,-0.46643 -0.0973,-0.17551 -0.13073,-0.38007 -0.13338,-0.58072 -0.003,-0.20064 0.0238,-0.40036 0.0389,-0.60045 0.0216,-0.28725 0.0197,-0.57593 0.0432,-0.86303 0.0235,-0.28711 0.0735,-0.57578 0.19302,-0.83786 0.14707,-0.32236 0.39206,-0.58955 0.56696,-0.8977 0.27118,-0.47777 0.36337,-1.0325 0.51972,-1.55915 0.0739,-0.24882 0.16468,-0.49682 0.31669,-0.70719 0.15201,-0.21038 0.37268,-0.38144 0.62825,-0.42674 0.23378,-0.0414 0.48532,0.0298 0.66146,0.18899 0.1053,0.0952 0.18219,0.21695 0.27273,0.32626 0.0453,0.0547 0.0944,0.10661 0.15101,0.1494 0.0566,0.0428 0.1211,0.0763 0.19047,0.0913 0.0907,0.0196 0.18607,0.007 0.27408,-0.0226 0.088,-0.0294 0.16971,-0.0747 0.24989,-0.12143 0.0802,-0.0467 0.15975,-0.0951 0.24513,-0.1314 0.0854,-0.0363 0.17768,-0.0603 0.27033,-0.0553 0.10029,0.005 0.19678,0.0447 0.27998,0.10097 0.0832,0.0563 0.15407,0.12896 0.21863,0.20589 0.12914,0.15386 0.23807,0.32901 0.39909,0.4491 0.11263,0.084 0.24585,0.13686 0.3818,0.17234 0.13595,0.0355 0.27557,0.0544 0.41434,0.0764 0.13876,0.0221 0.27781,0.0475 0.4099,0.0954 0.13209,0.0479 0.25786,0.11946 0.35311,0.22275 0.13659,0.14812 0.20021,0.34877 0.24124,0.54604 0.041,0.19727 0.064,0.39999 0.13674,0.58789 0.12809,0.33082 0.39803,0.58574 0.56696,0.89769 0.16441,0.3036 0.22793,0.65204 0.25171,0.99647 0.0238,0.34444 0.0102,0.69057 0.0318,1.03515 0.0287,0.45715 0.12057,0.91327 0.30474,1.33266 0.18417,0.41939 0.46328,0.80141 0.82919,1.07694 0.26373,0.19859 0.56613,0.3384 0.84903,0.50858 0.2829,0.17018 0.55541,0.38095 0.71012,0.6726 0.1368,0.25788 0.16991,0.55589 0.21631,0.84409 0.0464,0.28821 0.11455,0.58696 0.30341,0.80955 0.18643,0.21972 0.46525,0.33554 0.73677,0.43204 0.27152,0.0965 0.55459,0.18569 0.77513,0.37116 0.18165,0.15276 0.30748,0.36001 0.42868,0.56407 0.1212,0.20406 0.24407,0.41253 0.42177,0.56986 0.1624,0.14378 0.36337,0.23779 0.56963,0.30489 0.20625,0.0671 0.41969,0.10898 0.63031,0.16077 0.21062,0.0518 0.42072,0.11439 0.6106,0.21922 0.18988,0.10484 0.35982,0.2553 0.45732,0.44905 0.0763,0.1517 0.10609,0.32424 0.18899,0.47247 0.085,0.15204 0.22191,0.26995 0.37219,0.35806 0.15029,0.0881 0.21474,0.14882 0.37825,0.20891 0.60939,0.26071 1.32393,0.52052 1.97887,0.89769 0.14622,0.14179 0.38313,0.29973 0.60871,0.47247"
        style="fill:none;fill-opacity:1;stroke:#ffffff;stroke-width:0.7;stroke-linecap:round;stroke-linejoin:miter;stroke-miterlimit:4;stroke-dasharray:none;stroke-opacity:1" />
    <path
        d="m 0,34.40656 c 0.433368,0.41466 0.506395,0.39801 0.792729,0.54393 0.22408,0.11419 0.46247,0.20618 0.71187,0.23858 0.30194,0.0392 0.60817,-0.01 0.90584,-0.074 0.29768,-0.064 0.59384,-0.14309 0.89755,-0.1646 0.50829,-0.036 1.02191,0.0936 1.47119,0.33401 0.32015,0.17132 0.61769,0.40702 0.79158,0.72579 0.0869,0.15938 0.14113,0.33783 0.14719,0.51928 0.006,0.18145 -0.0371,0.36569 -0.13198,0.52049 -0.0896,0.14628 -0.2218,0.26225 -0.36382,0.3585 -0.14202,0.0962 -0.29515,0.17473 -0.44297,0.26182 -0.34262,0.20186 -0.66604,0.46088 -0.85423,0.8112 -0.0847,0.15762 -0.14041,0.33367 -0.13935,0.51259 0.001,0.17892 0.0626,0.36066 0.18675,0.48947 0.0847,0.0879 0.19495,0.14832 0.3105,0.1878 0.11555,0.0395 0.23689,0.0591 0.35806,0.0742 0.24234,0.0302 0.49586,0.046 0.70771,0.16751 0.12986,0.0745 0.23618,0.18511 0.32234,0.30753 0.0862,0.12241 0.15338,0.25696 0.21836,0.39182 0.065,0.13485 0.12826,0.27099 0.20743,0.39804 0.0792,0.12705 0.17523,0.24561 0.29594,0.33414 0.15967,0.11711 0.35482,0.17631 0.5499,0.21027 0.19509,0.034 0.39356,0.0447 0.58908,0.076 0.25569,0.041 0.50514,0.11689 0.76188,0.15064 0.25674,0.0337 0.52985,0.0218 0.75677,-0.10294 0.17692,-0.0973 0.31356,-0.25718 0.41025,-0.43442 0.0967,-0.17724 0.15622,-0.37217 0.20671,-0.56765 0.19319,-0.74799 0.26548,-1.53252 0.56948,-2.24272 0.34141,-0.79761 0.94981,-1.44447 1.51865,-2.09957 0.47191,-0.54348 0.93134,-1.11086 1.51865,-1.52695 0.81748,-0.57916 1.84759,-0.82638 2.84747,-0.76349 1.16459,0.0733 2.26128,0.54125 3.36949,0.90664 0.68292,0.22517 1.38178,0.41453 2.02728,0.73142 0.6455,0.31689 1.24577,0.77892 1.57952,1.41586 0.17616,0.33619 0.27171,0.70745 0.38193,1.07065 0.11021,0.36319 0.24014,0.72865 0.4723,1.02892 0.16682,0.21575 0.38028,0.38981 0.57663,0.5791 0.19634,0.18928 0.38126,0.40281 0.46745,0.66155 0.098,0.29429 0.0586,0.6137 0.0632,0.92386 0.002,0.15508 0.0163,0.3115 0.0638,0.45915 0.0475,0.14766 0.1305,0.28691 0.25261,0.38254 0.0904,0.0708 0.19907,0.1155 0.3107,0.14223 0.11163,0.0267 0.22664,0.0362 0.34129,0.0419 0.22928,0.0115 0.46654,0.0101 0.67682,0.10217 0.13291,0.0582 0.24826,0.15156 0.34614,0.25867 0.0979,0.10711 0.17927,0.2281 0.25682,0.35073 0.15509,0.24527 0.30275,0.50637 0.53603,0.67897 0.14027,0.10378 0.30572,0.17027 0.47586,0.20898 0.17013,0.0387 0.34536,0.0505 0.51984,0.0519 0.34896,0.003 0.70117,-0.0344 1.04498,0.0254 0.35175,0.0612 0.67745,0.22105 0.99729,0.37971 0.31983,0.15866 0.6447,0.31979 0.99595,0.38376 0.24455,0.0445 0.49489,0.0406 0.74323,0.0514 0.24834,0.0109 0.50104,0.0379 0.72795,0.13942 0.18576,0.0831 0.3462,0.21236 0.50981,0.33335 0.16361,0.12099 0.33701,0.23703 0.53427,0.28698 0.21119,0.0535 0.43299,0.0273 0.65068,0.0188 0.10884,-0.004 0.21839,-0.004 0.32597,0.0131 0.10758,0.0171 0.2136,0.0515 0.3047,0.11116 0.16839,0.11036 0.2734,0.30086 0.31198,0.49846 0.0386,0.1976 0.0165,0.40254 -0.0272,0.59905 -0.0531,0.23843 -0.1377,0.46897 -0.19088,0.70739 -0.0532,0.23842 -0.0738,0.49158 0.001,0.72412 0.0769,0.239 0.24709,0.43538 0.42144,0.61603 0.17434,0.18066 0.3599,0.3566 0.48027,0.57692 0.10497,0.19213 0.15502,0.40842 0.21919,0.61774 0.0642,0.20932 0.14766,0.42074 0.30283,0.57519 0.0969,0.0965 0.21701,0.16578 0.33488,0.2352 0.11788,0.0694 0.23674,0.14146 0.32954,0.24197 0.1395,0.15109 0.20837,0.35352 0.25768,0.55317 0.0493,0.19964 0.0836,0.40518 0.16944,0.59205 0.0846,0.78418 0.21875,0.74534 0.7845,0.86201"
        style="fill:none;fill-opacity:1;stroke:#ffffff;stroke-width:0.7;stroke-linecap:round;stroke-linejoin:miter;stroke-miterlimit:4;stroke-dasharray:none;stroke-opacity:1" />
    <path
        d="m 52.39323,53.23869 c -0.44338,-0.27014 -0.78276,-0.70648 -0.93545,-1.20271 -0.12084,-0.39271 -0.12652,-0.81433 -0.0646,-1.22051 0.062,-0.40619 0.18963,-0.79942 0.33183,-1.18491 0.16135,-0.43741 0.34364,-0.87366 0.40091,-1.33635 0.0386,-0.31163 0.0192,-0.62705 0.0167,-0.94104 -0.003,-0.31399 0.0128,-0.63361 0.11692,-0.92985 0.0956,-0.27189 0.26266,-0.51379 0.45364,-0.72961 0.19097,-0.21582 0.40659,-0.40816 0.61544,-0.60674 0.28029,-0.26651 0.55244,-0.54943 0.74011,-0.88762 0.18767,-0.3382 0.28491,-0.74065 0.19533,-1.1169 -0.0492,-0.20647 -0.15262,-0.39787 -0.28605,-0.56293 -0.13342,-0.16505 -0.29632,-0.30461 -0.47093,-0.42526 -0.34921,-0.24131 -0.74373,-0.40769 -1.1139,-0.61542 -0.23657,-0.13276 -0.46348,-0.28258 -0.70363,-0.40875 -0.24016,-0.12617 -0.49677,-0.22923 -0.76636,-0.25943 -0.42527,-0.0476 -0.85026,0.0888 -1.23967,0.26625 -0.38941,0.17744 -0.76052,0.39804 -1.16575,0.53556 -0.7666,0.26015 -1.59819,0.20631 -2.40543,0.26727 -1.1046,0.0834 -2.17894,0.38527 -3.25905,0.63118 -1.07226,0.24412 -2.16099,0.43459 -3.26004,0.47247 -2.01768,0.0695 -4.04681,-0.38505 -5.85863,-1.27567 -0.68428,-0.33637 -1.34542,-0.73654 -2.07887,-0.94494 -0.61202,-0.1739 -1.26382,-0.20789 -1.88988,-0.0945 -0.23828,0.0431 -0.47336,0.10738 -0.71459,0.12856 -0.24122,0.0212 -0.49503,-0.004 -0.70282,-0.12856 -0.18565,-0.1111 -0.31996,-0.29245 -0.41776,-0.48544 -0.0978,-0.19299 -0.16343,-0.40033 -0.2437,-0.60124 -0.15481,-0.38749 -0.36483,-0.75215 -0.61421,-1.08669 -0.49316,-0.66156 -1.13199,-1.19769 -1.70089,-1.79538 -0.60733,-0.63806 -1.13851,-1.35021 -1.79539,-1.93713 -1.22052,-1.09052 -2.80506,-1.6861 -4.39397,-2.07887 -0.94465,-0.23351 -1.90921,-0.40426 -2.88207,-0.42522 -0.69356,-0.0149 -1.39146,0.046 -2.07887,-0.0473 -0.63694,-0.0865 -1.25138,-0.30395 -1.88988,-0.37798 -0.48871,-0.0567 -0.98808,-0.0276 -1.46466,0.0945 -0.48263,0.1237 -0.93695,0.34059 -1.41741,0.47247 -0.41847,0.11487 -0.85896,0.16404 -1.28866,0.10342 -0.42969,-0.0606 -0.8484,-0.2353 -1.16819,-0.52864 -0.34895,-0.32009 -0.56196,-0.75844 -0.85044,-1.13393 -0.44901,-0.58444 -1.08972,-1.01581 -1.79539,-1.22842 -0.83928,-0.25286 -1.74023,-0.20035 -2.59859,-0.37798 -0.54968,-0.11375 -1.079573,-0.7225 -1.859148,-0.91421"
        style="fill:none;fill-opacity:1;stroke:#ffffff;stroke-width:0.7;stroke-linecap:round;stroke-linejoin:miter;stroke-miterlimit:4;stroke-dasharray:none;stroke-opacity:1" />
    <path
        d="m 18.89129,0 c 1.6052,0.56038 1.16736,0.53962 1.51191,0.94494 0.23952,0.35128 0.37244,0.76207 0.5197,1.16092 0.14726,0.39885 0.31825,0.8017 0.61422,1.10694 0.17138,0.17675 0.37849,0.31409 0.56697,0.47247 0.7846,0.65929 1.21169,1.65272 1.46466,2.64583 0.16148,0.63393 0.26487,1.28738 0.51971,1.88988 0.25815,0.61032 0.66202,1.14549 1.05116,1.68187 0.38915,0.53639 0.77256,1.09071 0.98047,1.71992 0.12361,0.37409 0.18294,0.76872 0.33073,1.13393 0.14164,0.35002 0.36154,0.66433 0.6142,0.94494 0.46248,0.51364 1.03361,0.91847 1.51191,1.41741 0.46342,0.48342 0.84017,1.05532 1.37016,1.46466 0.41966,0.32412 0.91655,0.53114 1.41376,0.7154 0.4972,0.18427 1.00431,0.35086 1.46831,0.60751 0.74621,0.41275 1.34961,1.04113 1.88988,1.7009 1.41839,1.7321 2.48904,3.74709 4.06325,5.33891 0.34765,0.35154 0.72581,0.69074 0.94494,1.13393 0.11966,0.24202 0.18687,0.50584 0.27384,0.76143 0.087,0.25559 0.19841,0.51064 0.38762,0.70323 0.13854,0.14101 0.31191,0.24159 0.48084,0.34426 0.16893,0.10266 0.33861,0.2117 0.4641,0.36444 0.19642,0.23907 0.26277,0.55676 0.3124,0.86217 0.0496,0.30541 0.0924,0.62247 0.25456,0.88597 0.14236,0.23127 0.36521,0.40106 0.59465,0.54635 0.22945,0.14528 0.47189,0.27259 0.68102,0.44584 0.29466,0.24411 0.51019,0.56835 0.71786,0.88974 0.20766,0.32139 0.4155,0.64927 0.69955,0.90565 0.29799,0.26896 0.66807,0.44745 1.04977,0.57174 0.38169,0.12428 0.77775,0.19736 1.17084,0.2787 1.22841,0.25419 2.44153,0.59247 3.68527,0.75596 0.48379,0.0636 0.98501,0.10462 1.41741,0.33073 0.32306,0.16894 0.58733,0.43177 0.8217,0.71102 0.23438,0.27924 0.44438,0.5789 0.6902,0.84813 0.71816,0.78653 1.71314,1.27761 2.74033,1.55915 0.98823,0.27086 2.06355,0.35758 3.02381,0 0.68757,-0.25604 1.28388,-0.72676 1.98438,-0.94494 0.56433,-0.17577 1.1665,-0.17833 1.74814,-0.28348 0.72631,-0.1313 1.43674,-0.42436 2.17336,-0.37798 0.39866,0.0251 0.7853,0.14984 1.15082,0.31095 0.36552,0.1611 0.71354,0.35882 1.06979,0.5395 0.41953,0.21277 0.85147,0.40242 1.2563,0.64197 0.40483,0.23955 0.78611,0.53389 1.0588,0.91718 0.31079,0.43683 0.46573,0.96665 0.75595,1.41741 0.22418,0.34819 0.52478,0.64189 0.85045,0.89769 0.20775,0.16318 0.42668,0.31222 0.62776,0.48356 0.20107,0.17134 0.38596,0.36788 0.50617,0.60312 0.0708,0.13857 0.11782,0.28776 0.1709,0.43404 0.0531,0.14628 0.11349,0.29209 0.20708,0.41641 0.12256,0.16281 0.29613,0.28057 0.4782,0.37209 0.18208,0.0915 0.37494,0.15952 0.56123,0.24212 0.50927,0.2258 0.96432,0.55824 1.46466,0.8032 1.00181,0.49048 2.18014,0.61002 3.86004,0.69073"
        style="fill:none;fill-opacity:1;stroke:#ffffff;stroke-width:0.7;stroke-linecap:round;stroke-linejoin:miter;stroke-miterlimit:4;stroke-dasharray:none;stroke-opacity:1" />
</svg>
