<?xml version="1.0" encoding="UTF-8" standalone="no"?>
<svg
    xmlns="http://www.w3.org/2000/svg"
    width="20px"
    height="20px"
    viewBox="0 0 20 20"
    version="1.1"
>
    <path d="M3.5,0.5L16.5,0.5C16.75,0.5,17,0.75,17,1L17,2.5C17,2.75,16.75,3,16.5,3L3.5,3C3.25,3,3,2.75,3,2.5L3,1C3,0.75,3.25,0.5,3.5,0.5z" style="fill:#fff" />
    <path d="M3.5,17L16.5,17C16.75,17,17,17.25,17,17.5L17,19C17,19.25,16.75,19.5,16.5,19.5L3.5,19.5C3.25,19.5,3,19.25,3,19L3,17.5C3,17.25,3.25,17,3.5,17z" style="fill:#fff" />

    <path d="M5,4.5L15,4.5L10,10z" style="fill:#fff" />

    <path d="M5,3C5,7,9,9,10,10C11,11,15,13,15,17" style="fill:none;stroke:#fff;stroke-width:1.5" />
    <path d="M15,3C15,7,11,9,10,10C9,11,5,13,5,17" style="fill:none;stroke:#fff;stroke-width:1.5" />
</svg>