<?xml version="1.0" encoding="UTF-8" standalone="no"?>
<svg
    xmlns="http://www.w3.org/2000/svg"
    width="20px"
    height="20px"
    viewBox="0 0 100 100"
    version="1.1"
>
    <path d="M73.742,16.819c-2.138,5.297-8.161,7.866-13.472,5.755c-5.298-2.138-7.879-8.161-5.741-13.472 c2.124-5.311,8.147-7.892,13.458-5.754C73.285,5.485,75.866,11.509,73.742,16.819z" style="fill:#007700" />
    <path d="M46.543,61.739l-5.62,8.363l-6.306,3.012c-1.95,0.928-3.415,2.554-4.127,4.584c-0.726,2.018-0.605,4.209,0.322,6.145 c0.121,0.256,0.269,0.484,0.404,0.727l-6.319,9.425c-1.25,1.869-3.415,2.877-5.661,2.635c-0.968-0.107-1.896-0.443-2.716-0.981 c-2.756-1.868-3.496-5.62-1.64-8.376l22.601-33.693l0.014,0.014l0.04,0.04L46.543,61.739z" style="fill:#007700" />
    <path d="M34.644,45.727c0.444,2.635-1.331,5.109-3.953,5.553c-0.269,0.04-0.538,0.067-0.807,0.067 c-0.027,0-0.054-0.014-0.094-0.014c-0.121,0-0.229-0.014-0.35-0.027c-0.188-0.026-0.363-0.04-0.538-0.08 c-0.121-0.027-0.242-0.054-0.363-0.095c-0.161-0.054-0.336-0.107-0.498-0.174c-0.107-0.041-0.215-0.094-0.336-0.162 c-0.148-0.067-0.296-0.161-0.444-0.255c-0.094-0.067-0.202-0.134-0.296-0.202c-0.134-0.107-0.269-0.229-0.39-0.35 c-0.094-0.081-0.175-0.161-0.255-0.255c-0.121-0.134-0.229-0.282-0.336-0.43c-0.067-0.094-0.134-0.175-0.202-0.282 c-0.107-0.175-0.188-0.35-0.269-0.538c-0.041-0.094-0.094-0.175-0.135-0.269c-0.094-0.283-0.188-0.592-0.242-0.901l-2.891-23.3 c0-0.041,0-0.067,0-0.094c-0.027-0.175-0.027-0.35-0.04-0.524c0-0.161-0.014-0.309-0.014-0.47c0.014-0.027,0-0.067,0-0.094 c0.014-0.121,0.054-0.242,0.067-0.363c0.027-0.161,0.054-0.322,0.094-0.484c0.04-0.161,0.107-0.309,0.161-0.457 s0.094-0.282,0.162-0.403c0.067-0.162,0.161-0.31,0.255-0.457c0.081-0.108,0.148-0.229,0.229-0.336 c0.094-0.134,0.215-0.255,0.336-0.39c0.094-0.094,0.188-0.202,0.282-0.296c0.135-0.107,0.269-0.215,0.404-0.309 c0.107-0.081,0.215-0.162,0.349-0.242c0.148-0.094,0.31-0.161,0.471-0.242c0.121-0.054,0.242-0.107,0.363-0.148 c0.188-0.081,0.376-0.121,0.564-0.161c0.094-0.027,0.175-0.054,0.282-0.081c0.027,0,0.054,0,0.081,0 c0.175-0.027,0.363-0.027,0.538-0.041c0.121,0,0.242-0.013,0.363-0.013c0.027,0,0.054,0.013,0.094,0.013c0.014,0,0.041,0,0.054,0 c0.014,0,0.014,0,0.027,0c0.014,0,0.014,0,0.027,0c0,0,20.894,1.17,22.44,1.654c0.995,0.309,17.089,8.067,17.681,11.832 l4.611,12.154L84.565,34.5c0.256-0.175,0.511-0.323,0.78-0.444c0.08-0.041,0.161-0.067,0.241-0.094 c0.188-0.081,0.391-0.148,0.578-0.202c0.095-0.027,0.188-0.041,0.282-0.067c0.202-0.04,0.417-0.067,0.619-0.081 c0.08,0,0.161-0.013,0.229-0.013c0.04,0,0.054,0,0.094,0c0.081,0,0.148,0.013,0.229,0.027c0.242,0,0.484,0.027,0.727,0.081 c0.121,0.027,0.242,0.054,0.362,0.094c0.216,0.054,0.431,0.134,0.646,0.229c0.107,0.054,0.229,0.107,0.336,0.161 c0.216,0.121,0.404,0.255,0.605,0.403c0.081,0.067,0.175,0.121,0.269,0.202c0.27,0.229,0.512,0.498,0.74,0.793 c1.546,2.165,1.062,5.176-1.103,6.736l-17.546,12.92c-0.027,0.027-0.054,0.027-0.081,0.054c-0.134,0.095-0.296,0.175-0.443,0.256 c-0.148,0.081-0.282,0.161-0.417,0.215c-0.04,0.014-0.067,0.041-0.094,0.054c-0.121,0.041-0.229,0.054-0.35,0.095 c-0.148,0.054-0.31,0.107-0.471,0.134c-0.161,0.041-0.323,0.041-0.484,0.067c-0.147,0.014-0.296,0.027-0.43,0.027 c-0.175,0-0.35-0.014-0.524-0.027c-0.135-0.014-0.27-0.026-0.403-0.054c-0.175-0.026-0.337-0.08-0.498-0.135 c-0.134-0.04-0.269-0.066-0.39-0.12c-0.161-0.067-0.31-0.148-0.457-0.216c-0.121-0.067-0.256-0.134-0.377-0.215 c-0.147-0.094-0.282-0.202-0.416-0.31c-0.108-0.08-0.216-0.161-0.31-0.255c-0.135-0.135-0.269-0.296-0.39-0.444 c-0.054-0.066-0.135-0.134-0.188-0.215c-0.014-0.026-0.027-0.054-0.04-0.08c-0.107-0.135-0.188-0.296-0.27-0.458 c-0.08-0.134-0.147-0.269-0.215-0.403c-0.014-0.04-0.027-0.066-0.04-0.094l-4.007-9.062c0,0-3.469,6.279-4.49,8.041 l11.898,10.729c1.196,1.076,1.909,2.568,1.99,4.168c0.04,0.888-0.121,1.762-0.444,2.555c-0.026,0.081-0.026,0.148-0.054,0.215 c-0.538,1.52-1.641,2.743-3.092,3.429l-26.5,12.639c-0.82,0.39-1.694,0.578-2.595,0.578c-2.313,0-4.451-1.345-5.445-3.429 c-0.054-0.107-0.067-0.229-0.121-0.336c-0.551-1.371-0.619-2.877-0.121-4.275c0.538-1.52,1.64-2.743,3.092-3.429l3.24-1.546 l15.543-7.408l-6.588-5.93l-8.78-7.919c-0.094-0.094-0.161-0.188-0.242-0.282c-3.644-4.061-0.955-10.837-0.242-12.598 l3.993-9.949l-9.896-0.807L34.644,45.727z" style="fill:#007700" />
</svg>