<?xml version="1.0" encoding="UTF-8" standalone="no"?>
<svg
    xmlns="http://www.w3.org/2000/svg"
    width="20px"
    height="20px"
    viewBox="0 0 256 256"
    version="1.1"
>
    <path d="M43.9,10.7c-1.9,0.8-3.8,3.2-4.2,5c-0.2,0.8-0.2,5.4-0.1,10.3c0.1,8.1,0.2,9,1.1,10.1c2,2.8,3.1,3.2,8.4,3.3l4.9,0.2l0.6,7.7c1.2,15.9,4.7,27,11.6,36.9c4.9,7,10.7,12.3,23.6,21.6c4.2,3,9.6,7.1,12,9c4.9,3.8,13.8,12.5,13.8,13.4c0,1.3-10.8,11.2-18.7,17.1c-4.5,3.4-10.6,7.9-13.5,10.1c-19.8,14.8-27.5,29.5-29,55.8l-0.3,5.6l-5,0.2c-5.4,0.1-6.4,0.6-8.4,3.3c-0.9,1.2-1,1.9-1,11.3c0,11.1,0,11.2,3.2,13.6l1.2,1H128h83.8l1.4-1c3.1-2.2,3.2-2.5,3.2-13.6c0-9.4,0-10.1-1-11.3c-2-2.8-3.1-3.2-8.4-3.3l-4.9-0.2l-0.6-7.6c-1.4-19.4-6.2-31.9-16.7-43.2c-4-4.3-9.4-8.8-19.9-16.4c-4.9-3.6-10.9-8.2-13.4-10.2c-4.3-3.6-11-10.4-11-11.2s6.7-7.6,11-11.2c2.4-2,8.2-6.4,12.7-9.7c11.5-8.4,14.2-10.5,19-15.3c11.6-11.6,16.8-24.4,18.3-44.8l0.6-7.6h4.3c5.1,0,6.9-0.6,8.7-3l1.3-1.7v-10v-10l-1.2-1.6c-2.6-3.4,5-3.1-87.2-3.1C60.3,10.1,45,10.1,43.9,10.7z M187.1,42.5c0,4.2-0.8,11.2-1.8,15.9c-1.9,8.7-5.8,16.8-11,22.6l-2.4,2.8h-43.8H84.4L82,81.2c-4.8-5.3-8.6-12.8-10.7-20.8c-1.2-4.5-2.3-13-2.3-17.4v-3.4h59.1h59.1L187.1,42.5L187.1,42.5z M132.1,138.3c1.3,0.6,4.5,3.4,9.5,8.4c5.8,5.8,9.4,9,16,14c12.8,9.6,18.6,15.5,22.8,23.3l1.7,3.2h-54h-54l1-2c4-8,10.5-14.7,23.5-24.5c7.8-5.9,14.3-11.8,21-19.1c1.2-1.4,3.1-2.9,4.2-3.3C126.1,137.1,129.7,137.1,132.1,138.3z" style="fill:#007700" />
</svg>